<?xml version="1.0" encoding="UTF-8"?>
<!DOCTYPE svg PUBLIC "-//W3C//DTD SVG 1.1//EN" "http://www.w3.org/Graphics/SVG/1.1/DTD/svg11.dtd">
<svg xmlns="http://www.w3.org/2000/svg" version="1.1" width="241px" height="209px" style="shape-rendering:geometricPrecision; text-rendering:geometricPrecision; image-rendering:optimizeQuality; fill-rule:evenodd; clip-rule:evenodd" xmlns:xlink="http://www.w3.org/1999/xlink">
<g><path style="opacity:1" fill="#fefefe" d="M -0.5,-0.5 C 21.8333,-0.5 44.1667,-0.5 66.5,-0.5C 55.8047,3.84141 49.638,11.8414 48,23.5C 46.6546,36.9107 47.8213,50.0774 51.5,63C 44.0378,66.5586 36.3711,69.892 28.5,73C 17.057,78.1098 8.55701,86.2764 3,97.5C 1.23172,109.802 5.39838,119.635 15.5,127C 26.6818,134.256 38.6818,139.923 51.5,144C 47.8212,156.897 46.6546,170.064 48,183.5C 49.3483,195.578 55.5149,203.911 66.5,208.5C 44.1667,208.5 21.8333,208.5 -0.5,208.5C -0.5,138.833 -0.5,69.1667 -0.5,-0.5 Z"/></g>
<g><path style="opacity:1" fill="#63dafb" d="M 66.5,-0.5 C 71.1667,-0.5 75.8333,-0.5 80.5,-0.5C 95.6411,4.99906 108.808,13.6657 120,25.5C 131.203,13.6616 144.37,4.99495 159.5,-0.5C 164.167,-0.5 168.833,-0.5 173.5,-0.5C 184.195,3.84141 190.362,11.8414 192,23.5C 192.667,30.1667 192.667,36.8333 192,43.5C 191.175,50.6066 190.175,57.6066 189,64.5C 206.227,68.4436 220.894,76.7769 233,89.5C 239,99.1667 239,108.833 233,118.5C 220.894,131.223 206.227,139.556 189,143.5C 189.982,149.088 190.982,154.755 192,160.5C 192.667,168.167 192.667,175.833 192,183.5C 190.652,195.578 184.485,203.911 173.5,208.5C 168.833,208.5 164.167,208.5 159.5,208.5C 144.37,203.005 131.203,194.338 120,182.5C 108.808,194.334 95.6411,203.001 80.5,208.5C 75.8333,208.5 71.1667,208.5 66.5,208.5C 55.5149,203.911 49.3483,195.578 48,183.5C 46.6546,170.064 47.8212,156.897 51.5,144C 38.6818,139.923 26.6818,134.256 15.5,127C 5.39838,119.635 1.23172,109.802 3,97.5C 8.55701,86.2764 17.057,78.1098 28.5,73C 36.3711,69.892 44.0378,66.5586 51.5,63C 47.8213,50.0774 46.6546,36.9107 48,23.5C 49.638,11.8414 55.8047,3.84141 66.5,-0.5 Z"/></g>
<g><path style="opacity:1" fill="#fefefe" d="M 80.5,-0.5 C 106.833,-0.5 133.167,-0.5 159.5,-0.5C 144.37,4.99495 131.203,13.6616 120,25.5C 108.808,13.6657 95.6411,4.99906 80.5,-0.5 Z"/></g>
<g><path style="opacity:1" fill="#fefefe" d="M 173.5,-0.5 C 195.833,-0.5 218.167,-0.5 240.5,-0.5C 240.5,69.1667 240.5,138.833 240.5,208.5C 218.167,208.5 195.833,208.5 173.5,208.5C 184.485,203.911 190.652,195.578 192,183.5C 192.667,175.833 192.667,168.167 192,160.5C 190.982,154.755 189.982,149.088 189,143.5C 206.227,139.556 220.894,131.223 233,118.5C 239,108.833 239,99.1667 233,89.5C 220.894,76.7769 206.227,68.4436 189,64.5C 190.175,57.6066 191.175,50.6066 192,43.5C 192.667,36.8333 192.667,30.1667 192,23.5C 190.362,11.8414 184.195,3.84141 173.5,-0.5 Z"/></g>
<g><path style="opacity:1" fill="#fdfefe" d="M 68.5,9.5 C 76.4126,8.97002 83.746,10.8033 90.5,15C 98.2973,19.652 105.464,25.152 112,31.5C 112.667,32.1667 112.667,32.8333 112,33.5C 105.353,40.801 99.1866,48.4677 93.5,56.5C 83.4397,57.7944 73.4397,59.461 63.5,61.5C 62.8333,61.1667 62.1667,60.8333 61.5,60.5C 57.9762,49.0795 56.8095,37.4128 58,25.5C 59.0068,18.3623 62.5068,13.029 68.5,9.5 Z"/></g>
<g><path style="opacity:1" fill="#fdfefe" d="M 161.5,9.5 C 171.648,7.81459 178.148,11.8146 181,21.5C 183.432,35.3905 182.432,49.0572 178,62.5C 167.636,59.9938 157.136,57.9938 146.5,56.5C 140.648,48.1361 134.315,40.1361 127.5,32.5C 137.201,22.3238 148.534,14.6572 161.5,9.5 Z"/></g>
<g><path style="opacity:1" fill="#f7fdfe" d="M 118.5,40.5 C 124.603,44.4385 129.603,49.6052 133.5,56C 124.5,56.6667 115.5,56.6667 106.5,56C 110.638,50.8635 114.638,45.6969 118.5,40.5 Z"/></g>
<g><path style="opacity:1" fill="#fdfefe" d="M 98.5,66.5 C 112.837,66.3334 127.171,66.5001 141.5,67C 149.519,78.6996 156.519,91.033 162.5,104C 156.519,116.967 149.519,129.3 141.5,141C 127.167,141.667 112.833,141.667 98.5,141C 90.4807,129.3 83.4807,116.967 77.5,104C 83.618,90.923 90.618,78.423 98.5,66.5 Z"/></g>
<g><path style="opacity:1" fill="#fbfefe" d="M 80.5,68.5 C 82.1992,68.3398 83.8659,68.5065 85.5,69C 80.3711,76.0856 75.8711,83.5856 72,91.5C 68.8116,85.1027 66.3116,78.436 64.5,71.5C 70.0494,70.9887 75.3827,69.9887 80.5,68.5 Z"/></g>
<g><path style="opacity:1" fill="#fbfefe" d="M 154.5,69.5 C 154.917,68.8761 155.584,68.5427 156.5,68.5C 162.797,69.7805 169.131,70.7805 175.5,71.5C 173.688,78.436 171.188,85.1027 168,91.5C 164.227,83.6013 159.727,76.268 154.5,69.5 Z"/></g>
<g><path style="opacity:1" fill="#fdfefe" d="M 52.5,74.5 C 53.7498,74.5774 54.5831,75.244 55,76.5C 58.1074,85.8229 61.6074,94.9896 65.5,104C 61.5888,113.907 57.5888,123.741 53.5,133.5C 39.1724,130.089 26.6724,123.422 16,113.5C 11.3333,107.167 11.3333,100.833 16,94.5C 18.5366,91.628 21.3699,89.128 24.5,87C 33.5388,81.9767 42.8721,77.81 52.5,74.5 Z"/></g>
<g><path style="opacity:1" fill="#fdfefe" d="M 185.5,74.5 C 200.222,77.6745 213.055,84.3412 224,94.5C 228.667,100.833 228.667,107.167 224,113.5C 213.328,123.422 200.828,130.089 186.5,133.5C 182.411,123.741 178.411,113.907 174.5,104C 178.665,94.3364 182.332,84.503 185.5,74.5 Z"/></g>
<g><path style="opacity:1" fill="#61dafb" d="M 113.5,83.5 C 132.488,81.9887 141.321,90.6554 140,109.5C 135.34,121.75 126.507,126.583 113.5,124C 99.3947,116.683 95.8947,105.849 103,91.5C 105.94,87.9632 109.44,85.2965 113.5,83.5 Z"/></g>
<g><path style="opacity:1" fill="#fbfdfe" d="M 71.5,116.5 C 75.7659,124.188 80.4326,131.688 85.5,139C 78.4803,138.609 71.4803,137.776 64.5,136.5C 66.2714,129.626 68.6048,122.96 71.5,116.5 Z"/></g>
<g><path style="opacity:1" fill="#fbfdfe" d="M 167.5,116.5 C 171.221,122.628 173.888,129.295 175.5,136.5C 168.489,137.574 161.489,138.407 154.5,139C 159.741,132.017 164.074,124.517 167.5,116.5 Z"/></g>
<g><path style="opacity:1" fill="#fdfefe" d="M 61.5,146.5 C 72.14,148.312 82.8067,149.979 93.5,151.5C 99.1866,159.532 105.353,167.199 112,174.5C 112.667,175.167 112.667,175.833 112,176.5C 103.944,184.554 94.7777,191.054 84.5,196C 68.2735,202.305 59.4402,196.805 58,179.5C 56.8093,168.213 57.976,157.213 61.5,146.5 Z"/></g>
<g><path style="opacity:1" fill="#fdfefe" d="M 177.5,145.5 C 183.45,160.533 183.95,175.866 179,191.5C 176.141,196.432 171.807,198.765 166,198.5C 156.951,197.059 148.784,193.559 141.5,188C 137,184.167 132.5,180.333 128,176.5C 127.333,175.833 127.333,175.167 128,174.5C 134.647,167.199 140.813,159.532 146.5,151.5C 157.074,150.044 167.408,148.044 177.5,145.5 Z"/></g>
<g><path style="opacity:1" fill="#f7fdfe" d="M 106.5,152.5 C 115.324,151.343 124.324,151.176 133.5,152C 129.582,157.667 125.082,162.834 120,167.5C 115.022,162.838 110.522,157.838 106.5,152.5 Z"/></g>
<g><path style="opacity:1" fill="#fefefe" d="M 159.5,208.5 C 133.167,208.5 106.833,208.5 80.5,208.5C 95.6411,203.001 108.808,194.334 120,182.5C 131.203,194.338 144.37,203.005 159.5,208.5 Z"/></g>
</svg>
