<?xml version="1.0" encoding="UTF-8"?>
<svg version="1.1" xmlns="http://www.w3.org/2000/svg" width="368" height="516">
<path d="M0 0 C121.44 0 242.88 0 368 0 C368 170.28 368 340.56 368 516 C246.56 516 125.12 516 0 516 C0 345.72 0 175.44 0 0 Z " fill="#264DE3" transform="translate(0,0)"/>
<path d="M0 0 C121.44 0 242.88 0 368 0 C368 170.28 368 340.56 368 516 C306.95 516 245.9 516 183 516 C186.53374933 514.23312534 189.4579992 513.24559265 193.25 512.265625 C194.4877417 511.94198975 195.7254834 511.61835449 197.00073242 511.28491211 C197.65302826 511.11619598 198.3053241 510.94747986 198.97738647 510.77365112 C208.43059342 508.32623229 217.85811158 505.82700245 227.1875 502.9375 C235.96680684 500.228189 244.83594336 497.942732 253.73779297 495.67333984 C261.14065622 493.77402357 268.48677714 491.73958276 275.8125 489.5625 C286.26535193 486.45608659 296.7783883 483.61262241 307.32348633 480.84008789 C315.58175198 478.6653233 323.79795115 476.37666777 332 474 C332.15819214 472.06241821 332.15819214 472.06241821 332.31958008 470.08569336 C335.84080651 427.0355199 335.84080651 427.0355199 337.4375 411.1875 C338.91964954 396.43089368 340.14003433 381.65403204 341.375 366.875 C342.95989958 347.92697019 344.62186723 328.9898349 346.4375 310.0625 C348.81043828 285.31946714 351.00697228 260.56250126 353.17015076 235.8004303 C354.74216731 217.8628972 356.36974303 199.93282664 358 182 C360.31 155.27 362.62 128.54 365 101 C244.55 101 124.1 101 0 101 C0 67.67 0 34.34 0 0 Z " fill="#FDFEFE" transform="translate(0,0)"/>
<path d="M0 0 C75.9 0 151.8 0 230 0 C230 10.11337868 230 10.11337868 229.6328125 13.77734375 C229.51305054 15.02040283 229.51305054 15.02040283 229.39086914 16.28857422 C229.30313232 17.16271973 229.21539551 18.03686523 229.125 18.9375 C228.45149616 25.96365432 227.83012869 32.98891587 227.31039429 40.0282135 C226.54021778 50.42626003 225.6676145 60.80820992 224.67578125 71.1875 C224.40683526 74.02513744 224.1391558 76.86289345 223.87182617 79.70068359 C223.80164276 80.44540609 223.73145935 81.19012859 223.65914917 81.95741844 C222.79690144 91.12862583 221.96467754 100.30255803 221.1328125 109.4765625 C221.05230904 110.36404867 220.97180557 111.25153484 220.88886261 112.16591454 C220.47213055 116.76062109 220.05570989 121.35535579 219.63943481 125.95010376 C218.67600379 136.58163602 217.70824208 147.21277534 216.74133873 157.84399223 C216.48394746 160.67415015 216.22658194 163.50431041 215.96923828 166.33447266 C215.88646417 167.2447865 215.80369005 168.15510035 215.71840763 169.09299946 C215.19765863 174.82149695 214.67819972 180.55011001 214.15966797 186.27880859 C213.56888773 192.80561503 212.97472827 199.33210585 212.37762451 205.8583374 C212.16885887 208.14667252 211.96136361 210.43512392 211.75518799 212.72369385 C211.47679663 215.8122003 211.1940818 218.90027943 210.91015625 221.98828125 C210.83135727 222.87448654 210.75255829 223.76069183 210.67137146 224.67375183 C210.36704835 227.94201215 210.04187071 230.87438786 209 234 C207.09594727 234.85861206 207.09594727 234.85861206 204.56640625 235.54638672 C203.62031494 235.81031219 202.67422363 236.07423767 201.69946289 236.34616089 C200.66426514 236.62122467 199.62906738 236.89628845 198.5625 237.1796875 C197.49443115 237.47432892 196.4263623 237.76897034 195.32592773 238.07254028 C191.88707568 239.01856221 188.44380625 239.94719242 185 240.875 C181.624444 241.79670465 178.2498673 242.72193665 174.87528992 243.6472168 C172.66904655 244.25157182 170.46235069 244.8542774 168.25520325 245.45532227 C161.34214223 247.3408956 154.45862844 249.30572702 147.59147644 251.35147095 C141.69497265 253.10433246 135.76780124 254.71047807 129.8125 256.25 C128.3574707 256.63285156 128.3574707 256.63285156 126.87304688 257.0234375 C113.48518825 260.50556363 113.48518825 260.50556363 107.42578125 258.62109375 C105.74875122 258.11473389 105.74875122 258.11473389 104.0378418 257.59814453 C102.808479 257.21513184 101.57911621 256.83211914 100.3125 256.4375 C97.55716201 255.60235468 94.7983229 254.77911308 92.0390625 253.95703125 C91.28056503 253.73013611 90.52206757 253.50324097 89.74058533 253.26947021 C78.27745577 249.86273208 66.72484802 246.76866338 55.1875 243.625 C51.85140169 242.71573718 48.515381 241.80619861 45.17971802 240.89533997 C43.15905654 240.34373487 41.13806483 239.79333733 39.1166687 239.24443054 C33.0483663 237.58912841 27.01581635 235.83693177 21 234 C19.12556539 221.67868286 18.10957905 209.31104066 17.14013672 196.890625 C16.87333715 193.47873509 16.59920835 190.0674886 16.32421875 186.65625 C16.1506113 184.46878411 15.97741924 182.28128521 15.8046875 180.09375 C15.72346649 179.08324585 15.64224548 178.0727417 15.55856323 177.03161621 C15.4481218 175.60347595 15.4481218 175.60347595 15.33544922 174.14648438 C15.27042206 173.3190271 15.2053949 172.49156982 15.13839722 171.63903809 C14.97011333 168.43010379 15 165.21334386 15 162 C30.18 162 45.36 162 61 162 C62.30099685 167.20398741 62.62872654 172.35047983 63.0625 177.6875 C63.15337891 178.73873047 63.24425781 179.78996094 63.33789062 180.87304688 C63.83999544 186.93983207 64.09560843 192.91292966 64 199 C65.12398193 199.11263184 66.24796387 199.22526367 67.40600586 199.34130859 C72.24907122 199.94968949 76.81929871 201.19822613 81.50390625 202.5390625 C83.31432641 203.04212291 85.1248773 203.54471303 86.93554688 204.046875 C89.75676708 204.83586239 92.57663518 205.62902156 95.39428711 206.43066406 C98.13593776 207.20806522 100.88188683 207.96838621 103.62890625 208.7265625 C104.46450577 208.9691983 105.30010529 209.21183411 106.161026 209.46182251 C113.67167676 211.51390768 119.49895144 210.23287743 126.97265625 208.29296875 C127.94011024 208.04296867 127.94011024 208.04296867 128.92710876 207.78791809 C130.28642584 207.43584565 131.6452725 207.08195242 133.00366211 206.72631836 C135.03197114 206.19548971 137.06171329 205.67048042 139.09179688 205.14648438 C146.86756006 203.13016045 154.59611358 200.99720284 162.30249023 198.7277832 C165 198 165 198 167 198 C166.97679687 197.41476562 166.95359375 196.82953125 166.9296875 196.2265625 C166.79391381 189.76761409 167.34163991 183.50340861 168.1322937 177.10549927 C169.06049798 169.211507 169.56397956 161.29286102 170.0703125 153.36328125 C170.16133059 151.96438254 170.25255637 150.56549732 170.34399414 149.16662598 C170.56469764 145.77787721 170.78331576 142.38900774 171 139 C170.18663209 139.00092179 169.37326418 139.00184359 168.53524876 139.00279331 C148.77346387 139.02484687 129.0116811 139.04141073 109.24988651 139.05181217 C99.69336061 139.05697551 90.13684291 139.06401892 80.58032227 139.07543945 C72.25397993 139.08538514 63.92764352 139.09185315 55.60129541 139.09408849 C51.18975143 139.0953958 46.77822443 139.09848288 42.36668587 139.10573006 C38.21929613 139.11248846 34.07193047 139.11461733 29.92453575 139.11310768 C28.3978627 139.11338409 26.87118888 139.11539028 25.34452057 139.11920547 C23.26916541 139.12413994 21.19390258 139.12299923 19.11854553 139.12025452 C17.95432099 139.12117631 16.79009645 139.1220981 15.59059238 139.12304783 C13 139 13 139 12 138 C11.6967211 135.61374905 11.45178658 133.24679527 11.24609375 130.8515625 C11.18092056 130.12440033 11.11574738 129.39723816 11.04859924 128.64804077 C10.9111006 127.09970491 10.77591297 125.55116239 10.64282227 124.00244141 C10.44129365 121.66892696 10.23001065 119.33645006 10.01757812 117.00390625 C9.88481751 115.49484426 9.75263927 113.9857309 9.62109375 112.4765625 C9.52736732 111.45086655 9.52736732 111.45086655 9.43174744 110.40444946 C8.93942762 104.54310881 9 98.94992747 9 93 C64.11 93 119.22 93 176 93 C176 89.37 176 85.74 176 82 C176.16664701 79.3526171 176.37053512 76.70716899 176.62109375 74.06640625 C176.71741844 73.03857277 176.71741844 73.03857277 176.81568909 71.98997498 C176.95027362 70.56575508 177.08731292 69.14176503 177.22680664 67.71801758 C177.43946594 65.54238723 177.6431332 63.36604383 177.84570312 61.18945312 C178.85758775 50.56964898 178.85758775 50.56964898 180 46 C121.92 46 63.84 46 4 46 C0 3 0 3 0 0 Z " fill="#FCFEFE" transform="translate(67,177)"/>
<path d="M0 0 C49.5 0 99 0 150 0 C148.85232333 24.10121 148.85232333 24.10121 147.9140625 33.4140625 C147.76188263 34.99189011 147.76188263 34.99189011 147.60662842 36.60159302 C147.3929584 38.8126885 147.17713121 41.02357658 146.95916748 43.23425293 C146.38411604 49.06921326 145.82593675 54.90579657 145.265625 60.7421875 C145.09944168 62.466651 145.09944168 62.466651 144.92990112 64.22595215 C144.01712658 73.72904894 143.1726839 83.23662399 142.375 92.75 C142.14475113 95.48699771 141.91426838 98.22397564 141.68359375 100.9609375 C141.62817917 101.61912476 141.57276459 102.27731201 141.51567078 102.95544434 C140.85533777 110.76487029 140.1484702 118.57004617 139.4375 126.375 C139.3226123 127.63924805 139.20772461 128.90349609 139.08935547 130.20605469 C138.58053989 135.77190367 138.0680064 141.33672553 137.51586914 146.8984375 C136.20159245 160.21686965 135.22759995 173.53922254 134.39819336 186.89599609 C133.76142657 197.06363318 132.91496934 207.15447402 131.62890625 217.26171875 C130.2149741 228.44636814 129.17394731 239.64836713 128.2109375 250.87890625 C128.13572058 251.75596348 128.06050365 252.63302071 127.98300743 253.53665543 C127.51968379 258.95698015 127.06256674 264.37781636 126.60736084 269.79882812 C125.99107303 277.12888115 125.36752161 284.4583186 124.74333572 291.78770256 C124.52843248 294.32004721 124.31583974 296.85257741 124.10360718 299.38514709 C123.97196045 300.94109572 123.84025965 302.49703978 123.70849609 304.05297852 C123.65134933 304.74235001 123.59420258 305.4317215 123.5353241 306.14198303 C123.14003436 310.7805617 122.6003848 315.38457956 122 320 C118.8752315 320.8550149 115.75015694 321.70890602 112.625 322.5625 C111.64128418 322.8313501 110.65756836 323.1002002 109.64404297 323.37719727 C104.29767596 324.83602164 98.94870324 326.28393073 93.59375 327.7109375 C81.77286041 330.86395037 69.98991665 334.10415169 58.26611328 337.60327148 C52.32445386 339.36662642 46.3626669 340.93042126 40.33154297 342.36035156 C38.05762455 342.77743174 38.05762455 342.77743174 37 344 C35.5070511 344.32584202 34.00498133 344.61023477 32.5 344.875 C28.31751546 345.67476687 24.44084034 346.80098657 20.4296875 348.20703125 C14.08571249 350.27749255 7.53694814 351.69261037 1 353 C1 337.82 1 322.64 1 307 C2.65 307 4.3 307 6 307 C6 306.34 6 305.68 6 305 C6.66 305 7.32 305 8 305 C8 304.34 8 303.68 8 303 C9.12792969 302.70867187 10.25585938 302.41734375 11.41796875 302.1171875 C13.00784632 301.70325488 14.59768804 301.28918453 16.1875 300.875 C16.91775391 300.68679688 17.64800781 300.49859375 18.40039062 300.3046875 C25.46187435 298.46005502 32.47361143 296.44820785 39.48890686 294.43682861 C48.91453128 291.73462572 58.34951549 289.0665926 67.79101562 286.42041016 C69.71300732 285.88096762 71.63454324 285.33989907 73.55566406 284.79736328 C76.38243939 283.99923163 79.21057184 283.2060905 82.0390625 282.4140625 C82.89827301 282.17039948 83.75748352 281.92673645 84.64273071 281.6756897 C85.43561493 281.45480682 86.22849915 281.23392395 87.04541016 281.00634766 C88.08624252 280.71372543 88.08624252 280.71372543 89.14810181 280.41519165 C91 280 91 280 94 280 C94.10957031 278.73414063 94.21914063 277.46828125 94.33203125 276.1640625 C97.10183319 244.21000136 99.95763192 212.26416656 102.8626709 180.32214355 C103.12162426 177.4746206 103.38040508 174.627082 103.63916016 171.77954102 C104.13630244 166.30999093 104.63422319 160.84051212 105.1328125 155.37109375 C105.25259335 154.05705535 105.25259335 154.05705535 105.37479401 152.71647072 C106.19657968 143.70793909 107.02450319 134.70005418 107.87402344 125.6940918 C107.94304556 124.96181712 108.01206768 124.22954245 108.08318138 123.47507763 C108.40115514 120.10477743 108.72072287 116.73464668 109.04275513 113.36473083 C109.78278125 105.56053784 110.41865581 97.75518952 111 89.9375 C112.13334607 75.27483522 113.58341783 60.63801581 115 46 C39.1 46 -36.8 46 -115 46 C-115 45.67 -115 45.34 -115 45 C-77.05 45 -39.1 45 0 45 C0 30.15 0 15.3 0 0 Z " fill="#2A64F0" transform="translate(182,131)"/>
<path d="M0 0 C120.78 0 241.56 0 366 0 C368.13832378 4.27664756 368.24894696 6.23329985 368.24609566 10.926548 C368.24840335 11.62677334 368.25071103 12.32699867 368.25308865 13.04844296 C368.2584033 15.40643383 368.24939251 17.76415429 368.24050903 20.12213135 C368.2413808 21.82500197 368.24313125 23.52787233 368.24568737 25.23074126 C368.25017056 29.91918644 368.24214388 34.60754067 368.23213124 39.29597425 C368.22351302 44.34843924 368.22641575 49.40089888 368.22793579 54.45336914 C368.22898567 63.21013865 368.22269828 71.96687841 368.21146011 80.72364044 C368.19522208 93.38452319 368.18999885 106.04539151 368.18748413 118.70628354 C368.18310436 139.24658 368.16978761 159.78686059 368.15087891 180.32714844 C368.1325274 200.28287681 368.11839025 220.23860085 368.10986328 240.19433594 C368.10932729 241.43647519 368.10879129 242.67861445 368.10823905 243.95839429 C368.10408033 253.67240326 368.10016644 263.38641233 368.09632993 273.10042143 C368.07745463 320.73362885 368.0372199 368.36679656 368 416 C306.95 416 245.9 416 183 416 C186.53374933 414.23312534 189.4579992 413.24559265 193.25 412.265625 C194.4877417 411.94198975 195.7254834 411.61835449 197.00073242 411.28491211 C197.65302826 411.11619598 198.3053241 410.94747986 198.97738647 410.77365112 C208.43059342 408.32623229 217.85811158 405.82700245 227.1875 402.9375 C235.96680684 400.228189 244.83594336 397.942732 253.73779297 395.67333984 C261.14065622 393.77402357 268.48677714 391.73958276 275.8125 389.5625 C286.26535193 386.45608659 296.7783883 383.61262241 307.32348633 380.84008789 C315.58175198 378.6653233 323.79795115 376.37666777 332 374 C332.15819214 372.06241821 332.15819214 372.06241821 332.31958008 370.08569336 C335.84080651 327.0355199 335.84080651 327.0355199 337.4375 311.1875 C338.91964954 296.43089368 340.14003433 281.65403204 341.375 266.875 C342.95989958 247.92697019 344.62186723 228.9898349 346.4375 210.0625 C348.81043828 185.31946714 351.00697228 160.56250126 353.17015076 135.8004303 C354.74216731 117.8628972 356.36974303 99.93282664 358 82 C360.31 55.27 362.62 28.54 365 1 C244.55 1 124.1 1 0 1 C0 0.67 0 0.34 0 0 Z " fill="#F8FAFE" transform="translate(0,100)"/>
<path d="M0 0 C0.33 0 0.66 0 1 0 C3.53054838 24.18938105 5.76406773 48.39625764 7.81835938 72.63067627 C9.2520586 89.53903671 10.78205557 106.43316073 12.43988037 123.32092285 C13.64541559 135.65138359 14.59562766 147.97365714 15.35229492 160.33959961 C15.80577747 167.60395332 16.50486539 174.73908669 17.50390625 181.94921875 C18.18615718 187.15587062 18.54103369 192.39034874 18.9375 197.625 C19.60695268 206.41132001 20.4002658 215.17320216 21.3125 223.9375 C22.83955063 238.7559516 24.10964268 253.59469831 25.375 268.4375 C27.12862846 289.00570702 28.93472013 309.56777807 30.8125 330.125 C30.92350037 331.34041473 31.03450073 332.55582947 31.14886475 333.80807495 C31.76399612 340.53889274 32.38086532 347.26954928 33 354 C36.76914867 355.10417485 40.5388274 356.20652974 44.30859375 357.30859375 C45.88658752 357.77090393 45.88658752 357.77090393 47.49645996 358.24255371 C60.76975897 362.12063434 74.10670244 365.74667559 87.49755859 369.19580078 C96.98704983 371.64184476 106.4060196 374.25232903 115.80175781 377.03613281 C127.74390624 380.55211463 139.7571945 383.81102415 151.76538086 387.0925293 C161.19426357 389.67034046 170.60929374 392.28599539 180 395 C180 395.33 180 395.66 180 396 C120.6 396 61.2 396 0 396 C0 265.32 0 134.64 0 0 Z " fill="#FBFCFE" transform="translate(0,120)"/>
<path d="M0 0 C15.18 0 30.36 0 46 0 C47.30099685 5.20398741 47.62872654 10.35047983 48.0625 15.6875 C48.15337891 16.73873047 48.24425781 17.78996094 48.33789062 18.87304688 C48.83999544 24.93983207 49.09560843 30.91292966 49 37 C50.6859729 37.16894775 50.6859729 37.16894775 52.40600586 37.34130859 C57.24907122 37.94968949 61.81929871 39.19822613 66.50390625 40.5390625 C68.31432641 41.04212291 70.1248773 41.54471303 71.93554688 42.046875 C74.75676708 42.83586239 77.57663518 43.62902156 80.39428711 44.43066406 C83.13593776 45.20806522 85.88188683 45.96838621 88.62890625 46.7265625 C89.88230553 47.0905162 89.88230553 47.0905162 91.161026 47.46182251 C96.16022973 48.8277217 99.83004889 49.10787519 105 48 C107.33333333 47.66666667 109.66666667 47.33333333 112 47 C109.0567344 48.96217707 106.24021262 50.58240698 103 52 C101.515 51.505 101.515 51.505 100 51 C100 65.85 100 80.7 100 96 C102.64 95.67 105.28 95.34 108 95 C103.91210555 97.35840064 99.97418694 98.35631494 95.2824707 97.50952148 C94.33976318 97.21634033 93.39705566 96.92315918 92.42578125 96.62109375 C91.30776123 96.28352051 90.18974121 95.94594727 89.0378418 95.59814453 C87.808479 95.21513184 86.57911621 94.83211914 85.3125 94.4375 C82.55716201 93.60235468 79.7983229 92.77911308 77.0390625 91.95703125 C75.9013163 91.61668854 75.9013163 91.61668854 74.74058533 91.26947021 C63.27745577 87.86273208 51.72484802 84.76866338 40.1875 81.625 C36.85140169 80.71573718 33.515381 79.80619861 30.17971802 78.89533997 C28.15905654 78.34373487 26.13806483 77.79333733 24.1166687 77.24443054 C18.0483663 75.58912841 12.01581635 73.83693177 6 72 C4.12556539 59.67868286 3.10957905 47.31104066 2.14013672 34.890625 C1.87333715 31.47873509 1.59920835 28.0674886 1.32421875 24.65625 C1.1506113 22.46878411 0.97741924 20.28128521 0.8046875 18.09375 C0.72346649 17.08324585 0.64224548 16.0727417 0.55856323 15.03161621 C0.48493561 14.07952271 0.41130798 13.1274292 0.33544922 12.14648438 C0.27042206 11.3190271 0.2053949 10.49156982 0.13839722 9.63903809 C-0.02988667 6.43010379 0 3.21334386 0 0 Z " fill="#EAEAEB" transform="translate(82,339)"/>
<path d="M0 0 C75.9 0 151.8 0 230 0 C230 10.125 230 10.125 229.5 14.5625 C229.4071875 15.40941406 229.314375 16.25632813 229.21875 17.12890625 C229.1465625 17.74636719 229.074375 18.36382812 229 19 C228.67 19 228.34 19 228 19 C227.97309156 16.37493198 227.95320596 13.75013827 227.9375 11.125 C227.92912109 10.37863281 227.92074219 9.63226563 227.91210938 8.86328125 C227.88671875 3.2265625 227.88671875 3.2265625 229 1 C191.38 1 153.76 1 115 1 C115 15.52 115 30.04 115 45 C136.45 45 157.9 45 180 45 C180 45.33 180 45.66 180 46 C121.92 46 63.84 46 4 46 C0 3 0 3 0 0 Z " fill="#E7E9ED" transform="translate(67,177)"/>
<path d="M0 0 C34.98 0 69.96 0 106 0 C106 14.85 106 29.7 106 45 C124.81 45 143.62 45 163 45 C163 46.65 163 48.3 163 50 C162.67 48.68 162.34 47.36 162 46 C161.18663209 46.00092179 160.37326418 46.00184359 159.53524876 46.00279331 C139.77346387 46.02484687 120.0116811 46.04141073 100.24988651 46.05181217 C90.69336061 46.05697551 81.13684291 46.06401892 71.58032227 46.07543945 C63.25397993 46.08538514 54.92764352 46.09185315 46.60129541 46.09408849 C42.18975143 46.0953958 37.77822443 46.09848288 33.36668587 46.10573006 C29.21929613 46.11248846 25.07193047 46.11461733 20.92453575 46.11310768 C19.3978627 46.11338409 17.87118888 46.11539028 16.34452057 46.11920547 C14.26916541 46.12413994 12.19390258 46.12299923 10.11854553 46.12025452 C8.95432099 46.12117631 7.79009645 46.1220981 6.59059238 46.12304783 C4 46 4 46 3 45 C2.6967211 42.61374905 2.45178658 40.24679527 2.24609375 37.8515625 C2.18092056 37.12440033 2.11574738 36.39723816 2.04859924 35.64804077 C1.9111006 34.09970491 1.77591297 32.55116239 1.64282227 31.00244141 C1.44129365 28.66892696 1.23001065 26.33645006 1.01757812 24.00390625 C0.88481751 22.49484426 0.75263927 20.9857309 0.62109375 19.4765625 C0.55860947 18.7927652 0.49612518 18.1089679 0.43174744 17.40444946 C-0.06057238 11.54310881 0 5.94992747 0 0 Z " fill="#EAEAEB" transform="translate(76,270)"/>
<path d="M0 0 C18.48 0 36.96 0 56 0 C56 6.27 56 12.54 56 19 C45.11 19 34.22 19 23 19 C23 20.32 23 21.64 23 23 C33.89 23 44.78 23 56 23 C56 38.51 56 54.02 56 70 C37.52 70 19.04 70 0 70 C0 62.74 0 55.48 0 48 C10.56 48 21.12 48 32 48 C32 47.01 32 46.02 32 45 C21.44 45 10.88 45 0 45 C0 30.15 0 15.3 0 0 Z " fill="#060606" transform="translate(152,0)"/>
<path d="M0 0 C78.705 0.495 78.705 0.495 159 1 C159 15.84482514 158.18667885 30.12689806 156.4765625 44.82421875 C155.89049106 49.8747756 155.43220732 54.93425773 155 60 C149.94322655 61.45177364 144.88498738 62.89814716 139.82421875 64.3359375 C136.21615893 65.36205568 132.61490475 66.40690068 129.01953125 67.4765625 C120.65882407 69.93219159 112.7838642 71.81054411 104 72 C102.87340481 68.62021442 102.87979017 66.07183864 102.88647461 62.5090332 C102.88635407 61.84455516 102.88623354 61.18007711 102.88610935 60.49546337 C102.886855 58.3472018 102.89446738 56.19902728 102.90234375 54.05078125 C102.90335083 52.73670288 102.90435791 51.42262451 102.90539551 50.06872559 C102.91063591 45.14997487 102.92459712 40.23123658 102.9375 35.3125 C102.958125 24.319375 102.97875 13.32625 103 2 C69.01 2 35.02 2 0 2 C0 1.34 0 0.68 0 0 Z " fill="#2A64EF" transform="translate(79,315)"/>
<path d="M0 0 C18.15 0 36.3 0 55 0 C55 6.27 55 12.54 55 19 C44.44 19 33.88 19 23 19 C23 20.32 23 21.64 23 23 C33.89 23 44.78 23 56 23 C56 38.51 56 54.02 56 70 C37.52 70 19.04 70 0 70 C0 62.74 0 55.48 0 48 C10.56 48 21.12 48 32 48 C32 46.68 32 45.36 32 44 C21.44 44 10.88 44 0 44 C0 29.48 0 14.96 0 0 Z " fill="#050505" transform="translate(219,0)"/>
<path d="M0 0 C57.75 0 115.5 0 175 0 C173.7461418 15.67322755 172.42352087 31.34127047 171 47 C115.89 47 60.78 47 4 47 C4 46.67 4 46.34 4 46 C38.98 46 73.96 46 110 46 C110 31.15 110 16.3 110 1 C73.7 1 37.4 1 0 1 C0 0.67 0 0.34 0 0 Z " fill="#2A64F0" transform="translate(72,223)"/>
<path d="M0 0 C18.48 0 36.96 0 56 0 C56 7.26 56 14.52 56 22 C45.11 22 34.22 22 23 22 C23 29.59 23 37.18 23 45 C33.89 45 44.78 45 56 45 C56 52.92 56 60.84 56 69 C37.52 69 19.04 69 0 69 C0 46.23 0 23.46 0 0 Z " fill="#050505" transform="translate(85,0)"/>
<path d="M0 0 C34.98 0 69.96 0 106 0 C106 0.66 106 1.32 106 2 C71.68 2 37.36 2 2 2 C2.9670956 13.59418241 2.9670956 13.59418241 5 25 C5 30.94 5 36.88 5 43 C38.33 43 71.66 43 106 43 C106 43.66 106 44.32 106 45 C124.81 45 143.62 45 163 45 C163 46.65 163 48.3 163 50 C162.67 48.68 162.34 47.36 162 46 C161.18663209 46.00092179 160.37326418 46.00184359 159.53524876 46.00279331 C139.77346387 46.02484687 120.0116811 46.04141073 100.24988651 46.05181217 C90.69336061 46.05697551 81.13684291 46.06401892 71.58032227 46.07543945 C63.25397993 46.08538514 54.92764352 46.09185315 46.60129541 46.09408849 C42.18975143 46.0953958 37.77822443 46.09848288 33.36668587 46.10573006 C29.21929613 46.11248846 25.07193047 46.11461733 20.92453575 46.11310768 C19.3978627 46.11338409 17.87118888 46.11539028 16.34452057 46.11920547 C14.26916541 46.12413994 12.19390258 46.12299923 10.11854553 46.12025452 C8.95432099 46.12117631 7.79009645 46.1220981 6.59059238 46.12304783 C4 46 4 46 3 45 C2.6967211 42.61374905 2.45178658 40.24679527 2.24609375 37.8515625 C2.18092056 37.12440033 2.11574738 36.39723816 2.04859924 35.64804077 C1.9111006 34.09970491 1.77591297 32.55116239 1.64282227 31.00244141 C1.44129365 28.66892696 1.23001065 26.33645006 1.01757812 24.00390625 C0.88481751 22.49484426 0.75263927 20.9857309 0.62109375 19.4765625 C0.55860947 18.7927652 0.49612518 18.1089679 0.43174744 17.40444946 C-0.06057238 11.54310881 0 5.94992747 0 0 Z " fill="#C7D3F8" transform="translate(76,270)"/>
<path d="M0 0 C57.75 0 115.5 0 175 0 C173.7461418 15.67322755 172.42352087 31.34127047 171 47 C115.89 47 60.78 47 4 47 C4 46.67 4 46.34 4 46 C20.4374467 45.82795617 36.87494634 45.66150654 53.3125 45.5 C54.52098351 45.48812275 55.72946701 45.4762455 56.97457123 45.46400833 C94.31784102 45.09869721 131.6548989 44.8412821 169 45 C168.98839844 43.72382813 168.97679687 42.44765625 168.96484375 41.1328125 C168.95546583 39.46354313 168.94636563 37.79427217 168.9375 36.125 C168.92912109 35.28324219 168.92074219 34.44148438 168.91210938 33.57421875 C168.90888672 32.76855469 168.90566406 31.96289062 168.90234375 31.1328125 C168.89710693 30.38918457 168.89187012 29.64555664 168.88647461 28.87939453 C169 27 169 27 170 25 C170.22074841 23.26267194 170.39130638 21.51881593 170.53515625 19.7734375 C170.66567383 18.2265625 170.66567383 18.2265625 170.79882812 16.6484375 C170.9293457 15.02808594 170.9293457 15.02808594 171.0625 13.375 C171.15337891 12.28703125 171.24425781 11.1990625 171.33789062 10.078125 C171.56225951 7.38569843 171.78280114 4.69301291 172 2 C170.04682861 2.00785522 170.04682861 2.00785522 168.05419922 2.01586914 C129.07486764 2.15541171 90.10249454 1.86934454 51.125 1.5 C49.86271324 1.48804218 48.60042648 1.47608437 47.29988861 1.46376419 C31.53321116 1.31396109 15.76658484 1.15924162 0 1 C0 0.67 0 0.34 0 0 Z " fill="#4769C8" transform="translate(72,223)"/>
<path d="M0 0 C120.45 0 240.9 0 365 0 C365 12.375 365 12.375 364.6328125 16.74682617 C364.51268799 18.21710518 364.51268799 18.21710518 364.39013672 19.71708679 C364.3026416 20.73212784 364.21514648 21.74716888 364.125 22.79296875 C364.03621582 23.86501053 363.94743164 24.93705231 363.85595703 26.0415802 C363.57487087 29.42392295 363.28754579 32.80570093 363 36.1875 C362.80687676 38.49801223 362.61416459 40.80855886 362.421875 43.11914062 C361.95266426 48.74649984 361.47834735 54.37341046 361 60 C360.67 60 360.34 60 360 60 C359.97088997 56.10418244 359.95316413 52.208393 359.9375 48.3125 C359.92912109 47.20970703 359.92074219 46.10691406 359.91210938 44.97070312 C359.90727539 43.3706543 359.90727539 43.3706543 359.90234375 41.73828125 C359.89448853 40.26935425 359.89448853 40.26935425 359.88647461 38.77075195 C359.99743083 36.06270433 360.44112269 33.64654777 361 31 C361.19340162 29.16016633 361.35851221 27.31720858 361.5 25.47265625 C361.5825 24.43302734 361.665 23.39339844 361.75 22.32226562 C361.8325 21.24654297 361.915 20.17082031 362 19.0625 C362.16427564 16.92820003 362.3308719 14.79407718 362.5 12.66015625 C362.5721875 11.71793213 362.644375 10.77570801 362.71875 9.80493164 C363.01465526 6.85384176 363.51241102 3.92553387 364 1 C184.315 1.495 184.315 1.495 1 2 C1 3.65 1 5.3 1 7 C1.66 7 2.32 7 3 7 C4.19388403 35.15153143 4.19388403 35.15153143 4 47 C3.67 47 3.34 47 3 47 C2.48184293 42.73117588 1.98913717 38.45973862 1.5 34.1875 C1.35691406 33.01123047 1.21382813 31.83496094 1.06640625 30.62304688 C-0.10471086 20.22241161 0 10.66456192 0 0 Z " fill="#334DBA" transform="translate(0,101)"/>
<path d="M0 0 C0.33 0 0.66 0 1 0 C2.16798193 5.11595389 2.35112993 10.20272849 2.62109375 15.4296875 C2.87614504 18.98715484 2.87614504 18.98715484 4.02734375 22.19921875 C5.37793305 27.47682272 5.21249691 32.51605667 5.125 37.9375 C5.11597656 39.00291016 5.10695313 40.06832031 5.09765625 41.16601562 C5.07423414 43.77758034 5.04143452 46.38866937 5 49 C5.66 49 6.32 49 7 49 C7.01981934 49.62753174 7.03963867 50.25506348 7.06005859 50.90161133 C7.4226464 61.89843864 7.83647471 72.86694349 9 83.8125 C9.0829834 84.59923096 9.1659668 85.38596191 9.25146484 86.1965332 C9.599841 89.27750623 10.01649108 92.04947323 11 95 C11.25814431 98.1837798 11.44144225 101.36137703 11.60546875 104.55078125 C11.77880744 107.58121967 12.03448616 110.10345849 13 113 C13.21084804 115.67074181 13.37512601 118.32514236 13.5 121 C13.54060547 121.79092041 13.58121094 122.58184082 13.62304688 123.39672852 C13.75266287 125.9309705 13.87671544 128.46544273 14 131 C14.16387195 134.31264584 14.33052578 137.62513607 14.5 140.9375 C14.54057022 141.73625046 14.58114044 142.53500092 14.62294006 143.35795593 C14.89355269 148.49825737 15.30205739 153.61003983 15.80810547 158.73291016 C16.09008981 162.06434346 16.09560338 165.34405838 16.0625 168.6875 C16.05347656 169.88761719 16.04445313 171.08773437 16.03515625 172.32421875 C16.02355469 173.20722656 16.01195313 174.09023438 16 175 C16.66 175 17.32 175 18 175 C18.05534912 175.95366455 18.11069824 176.9073291 18.16772461 177.88989258 C18.37422151 181.42920599 18.58608151 184.96818151 18.79956055 188.50708008 C18.89119362 190.03856872 18.98137344 191.57014503 19.07006836 193.10180664 C19.19783366 195.30379526 19.3308277 197.50541532 19.46484375 199.70703125 C19.52272316 200.73374687 19.52272316 200.73374687 19.58177185 201.78120422 C19.76604472 204.73409744 20.05865372 207.17596115 21 210 C21.11368862 211.5729859 21.17795629 213.14981839 21.2109375 214.7265625 C21.23736328 215.66677246 21.26378906 216.60698242 21.29101562 217.57568359 C21.31873047 218.58195801 21.34644531 219.58823242 21.375 220.625 C21.61518042 227.67866224 22.05299216 234.4639178 23.5 241.375 C26.74285387 257.18658746 26.23543503 273.91193929 26 290 C25.67 290 25.34 290 25 290 C24.13065089 280.36271718 23.26334833 270.72525155 22.39753723 261.0876503 C22.25788494 259.53336293 22.11818589 257.97907977 21.97843933 256.42480087 C18.40814807 216.71512803 18.40814807 216.71512803 16.93823242 197.80957031 C16.37922269 190.807962 15.63097944 183.86272822 14.7245636 176.90000916 C13.89306775 170.40570828 13.38610219 163.90508747 12.9375 157.375 C12.78247958 155.15346772 12.62501134 152.93210461 12.46484375 150.7109375 C12.399021 149.75493652 12.33319824 148.79893555 12.26538086 147.81396484 C12.03162884 144.97003289 12.03162884 144.97003289 11.50488281 142.0612793 C10.96775258 138.80447272 10.68985131 135.6011391 10.45703125 132.30859375 C10.35493359 130.90875839 10.25262564 129.50893835 10.15014648 128.10913086 C10.09575409 127.35437469 10.04136169 126.59961853 9.98532104 125.82199097 C8.55656127 106.10873909 6.85726337 86.41929893 5.1376915 66.72978592 C4.9397138 64.46284906 4.74200707 62.1958887 4.54434204 59.92892456 C4.22641178 56.28429099 3.90771891 52.63972481 3.58842278 48.99521065 C3.46487311 47.58487478 3.34143495 46.17452914 3.21811104 44.76417351 C2.62216942 37.95304744 2.01897579 31.14289245 1.37158203 24.33642578 C1.27696182 23.33370132 1.18234161 22.33097687 1.08485413 21.29786682 C0.91417096 19.50155575 0.74010546 17.70556041 0.56150818 15.91001892 C0.0557628 10.58252867 -0.06988063 5.35205409 0 0 Z " fill="#3B57C3" transform="translate(4,151)"/>
<path d="M0 0 C5.17005004 -0.01037562 10.34000275 -0.02783536 15.51000977 -0.05126953 C21.59641614 -0.07838297 27.68267512 -0.09097263 33.76914024 -0.09189606 C36.00960166 -0.09457589 38.25006332 -0.10234255 40.49048805 -0.11544037 C43.53815054 -0.13229841 46.58524577 -0.13075848 49.63293457 -0.12426758 C50.53001255 -0.13348488 51.42709053 -0.14270218 52.35135269 -0.15219879 C54.81300354 -0.13531494 54.81300354 -0.13531494 58.68347168 0.23217773 C59.67347168 1.71717773 59.67347168 1.71717773 60.68347168 3.23217773 C60.35347168 4.22217773 60.02347168 5.21217773 59.68347168 6.23217773 C59.54906702 7.68863233 59.45990258 9.14957876 59.40222168 10.61108398 C59.36483887 11.44961914 59.32745605 12.2881543 59.28894043 13.15209961 C59.21847227 14.9177184 59.14816046 16.68334344 59.07800293 18.44897461 C59.04062012 19.2862207 59.0032373 20.1234668 58.96472168 20.98608398 C58.93442871 21.75251221 58.90413574 22.51894043 58.8729248 23.30859375 C58.68347168 25.23217773 58.68347168 25.23217773 57.68347168 27.23217773 C57.46336379 28.89646106 57.29250266 30.56741841 57.14831543 32.23999023 C57.01779785 33.71918945 57.01779785 33.71918945 56.88464355 35.22827148 C56.75412598 36.77708008 56.75412598 36.77708008 56.62097168 38.35717773 C56.48465332 39.91758789 56.48465332 39.91758789 56.34558105 41.50952148 C56.12124799 44.08344821 55.90070393 46.65764358 55.68347168 49.23217773 C55.35347168 49.23217773 55.02347168 49.23217773 54.68347168 49.23217773 C53.9882536 33.34515715 56.13601124 18.22260229 57.68347168 2.23217773 C-18.21652832 2.23217773 -94.11652832 2.23217773 -172.31652832 2.23217773 C-172.31652832 1.90217773 -172.31652832 1.57217773 -172.31652832 1.23217773 C-114.87938076 0.62398404 -57.44051675 0.11132748 0 0 Z " fill="#4766BE" transform="translate(239.3165283203125,174.767822265625)"/>
<path d="M0 0 C0.33 0 0.66 0 1 0 C1.12393546 7.91701033 0.80899023 15.65998446 0.01171875 23.53515625 C-0.09114944 24.59963989 -0.19401764 25.66412354 -0.30000305 26.76086426 C-0.51936215 29.02563822 -0.74121116 31.29017222 -0.96539307 33.55447388 C-1.55510136 39.51434354 -2.12563908 45.47606048 -2.69921875 51.4375 C-2.87003967 53.20463097 -2.87003967 53.20463097 -3.04431152 55.00746155 C-3.96179282 64.52116438 -4.82144968 74.03854491 -5.625 83.5625 C-5.68272583 84.24445435 -5.74045166 84.92640869 -5.79992676 85.62902832 C-6.20470571 90.41896001 -6.60307265 95.20941225 -7 100 C-7.1929621 102.32405729 -7.38602889 104.64810587 -7.57911682 106.97215271 C-7.7110542 108.56105812 -7.84283977 110.14997614 -7.97447205 111.73890686 C-8.29567102 115.61390367 -8.61907893 119.4886874 -8.94799805 123.36303711 C-9.07220193 124.82925593 -9.19630854 126.295483 -9.3203125 127.76171875 C-9.38013809 128.46880478 -9.43996368 129.17589081 -9.50160217 129.90440369 C-9.86899009 134.2947837 -10.19329816 138.68634017 -10.4921875 143.08203125 C-10.60711548 144.63796997 -10.60711548 144.63796997 -10.72436523 146.2253418 C-10.86173445 148.09422401 -10.98475048 149.96424408 -11.09008789 151.83520508 C-11.27734375 154.2578125 -11.27734375 154.2578125 -12 158 C-14.8470938 160.32463741 -17.40259743 160.1998557 -21 160 C-20.34 159.67 -19.68 159.34 -19 159 C-19 158.34 -19 157.68 -19 157 C-17.35 157 -15.7 157 -14 157 C-13.94465088 155.70263916 -13.88930176 154.40527832 -13.83227539 153.06860352 C-13.62644517 148.27330279 -13.41440106 143.47829383 -13.20043945 138.68334961 C-13.10856226 136.60464835 -13.01838986 134.52587104 -12.92993164 132.44702148 C-12.80278265 129.46576833 -12.66958432 126.48483892 -12.53515625 123.50390625 C-12.47727684 122.10078941 -12.47727684 122.10078941 -12.41822815 120.66932678 C-12.37826218 119.80850998 -12.3382962 118.94769318 -12.29711914 118.06079102 C-12.26380997 117.29912125 -12.23050079 116.53745148 -12.19618225 115.75270081 C-12 114 -12 114 -11 113 C-10.85492735 111.37877577 -10.7728999 109.75180111 -10.71875 108.125 C-10.68136719 107.14015625 -10.64398438 106.1553125 -10.60546875 105.140625 C-10.57066406 104.10421875 -10.53585937 103.0678125 -10.5 102 C-10.43143151 99.95818268 -10.35874142 97.91649815 -10.28125 95.875 C-10.25095703 94.96492188 -10.22066406 94.05484375 -10.18945312 93.1171875 C-10 91 -10 91 -9 90 C-8.79594935 88.46014032 -8.65244606 86.91216717 -8.53515625 85.36328125 C-8.45716797 84.39197266 -8.37917969 83.42066406 -8.29882812 82.41992188 C-8.14513835 80.39909188 -7.99149025 78.37825872 -7.83789062 76.35742188 C-7.41213911 71.05110417 -6.84782951 65.81978241 -6.03125 60.55859375 C-4.6139273 51.00369072 -4.07634855 41.38251962 -3.4375 31.75 C-3.2500489 28.93991788 -3.06103827 26.1299892 -2.86671448 23.32037354 C-2.74684765 21.58672429 -2.63091944 19.85279713 -2.51939392 18.11859131 C-2.11258872 12.22517744 -2.11258872 12.22517744 -1 10 C-0.77377919 8.29636178 -0.59111527 6.58671299 -0.4375 4.875 C-0.35371094 3.96492188 -0.26992188 3.05484375 -0.18359375 2.1171875 C-0.09271484 1.06917969 -0.09271484 1.06917969 0 0 Z " fill="#3A57C1" transform="translate(345,316)"/>
<path d="M0 0 C78.705 0.495 78.705 0.495 159 1 C159 15.84482514 158.18667885 30.12689806 156.4765625 44.82421875 C155.89052058 49.87452122 155.42405272 54.93368588 155 60 C151.535 60.495 151.535 60.495 148 61 C148.99 60.01 148.99 60.01 150 59 C150.99 59 151.98 59 153 59 C153.03758423 57.59923218 153.03758423 57.59923218 153.07592773 56.17016602 C153.17086928 52.71674811 153.27011258 49.2635104 153.37231445 45.81030273 C153.41571813 44.31360731 153.45738913 42.81686061 153.49731445 41.32006836 C153.55488616 39.17285688 153.61861716 37.02590479 153.68359375 34.87890625 C153.73858032 32.93866577 153.73858032 32.93866577 153.79467773 30.95922852 C154 28 154 28 155 27 C155.21017016 24.69104731 155.36839941 22.37726031 155.5 20.0625 C155.88978186 13.22043628 155.88978186 13.22043628 157 11 C157.33 8.03 157.66 5.06 158 2 C105.86 2 53.72 2 0 2 C0 1.34 0 0.68 0 0 Z " fill="#3959BF" transform="translate(79,315)"/>
<path d="M0 0 C34.98 0 69.96 0 106 0 C106 0.66 106 1.32 106 2 C71.68 2 37.36 2 2 2 C2.33 4.97 2.66 7.94 3 11 C3.10330915 14.01249471 3.04787308 16.98399586 3 20 C2.67 20 2.34 20 2 20 C0.11660347 12.81955072 0 7.78054076 0 0 Z " fill="#DAE3FE" transform="translate(76,270)"/>
<path d="M0 0 C0.89602432 0.00429016 1.79204865 0.00858032 2.71522522 0.01300049 C3.69561768 0.03313705 4.67601013 0.05327362 5.68611145 0.07402039 C7.23758629 0.08799362 7.23758629 0.08799362 8.82040405 0.10224915 C12.2457775 0.136677 15.67045242 0.19256246 19.09553528 0.24858093 C21.46777857 0.27660739 23.84003799 0.3032985 26.21231079 0.32870483 C32.46130994 0.39922972 38.70992501 0.48793772 44.95863342 0.58036804 C51.33291103 0.67145951 57.70738431 0.74544431 64.0818634 0.82084656 C76.59318029 0.97137296 89.10417407 1.14051884 101.61506653 1.32279968 C101.61506653 1.65279968 101.61506653 1.98279968 101.61506653 2.32279968 C66.63506653 2.32279968 31.65506653 2.32279968 -4.38493347 2.32279968 C-3.32435456 17.87689489 -3.32435456 17.87689489 -1.38493347 33.32279968 C-1.31915346 35.7803411 -1.29924185 38.23948747 -1.32243347 40.69779968 C-1.33145691 41.94303406 -1.34048035 43.18826843 -1.34977722 44.47123718 C-1.36137878 45.41225281 -1.37298035 46.35326843 -1.38493347 47.32279968 C-2.04493347 47.32279968 -2.70493347 47.32279968 -3.38493347 47.32279968 C-3.43504578 46.59278748 -3.48515808 45.86277527 -3.53678894 45.11064148 C-3.77154641 41.74338898 -4.01568803 38.37687675 -4.25993347 35.01029968 C-4.33856628 33.86238953 -4.4171991 32.71447937 -4.49821472 31.53178406 C-4.96913461 25.13814097 -5.68706182 18.92479488 -6.95646667 12.63847351 C-7.55971498 9.37818279 -7.72924746 6.62821399 -7.38493347 3.32279968 C-5.17903059 0.36973901 -3.61252919 -0.04702701 0 0 Z " fill="#2A49C1" transform="translate(80.38493347167969,266.6772003173828)"/>
<path d="M0 0 C15.08994205 -0.07001704 30.17987153 -0.12295225 45.26994133 -0.15543652 C52.27620746 -0.17091905 59.28237278 -0.19203485 66.28857422 -0.22631836 C73.04477456 -0.25936284 79.80084832 -0.27683296 86.55713272 -0.28463173 C89.14004291 -0.29019234 91.72294709 -0.30105017 94.30581284 -0.31719017 C97.91217393 -0.33883788 101.51809655 -0.3419722 105.12451172 -0.34057617 C106.20200684 -0.351362 107.27950195 -0.36214783 108.38964844 -0.3732605 C109.36843964 -0.36913651 110.34723083 -0.36501251 111.35568237 -0.36076355 C112.63605283 -0.36491162 112.63605283 -0.36491162 113.94228935 -0.36914349 C114.62133387 -0.24732614 115.30037838 -0.12550879 116 0 C116.99 1.485 116.99 1.485 118 3 C117.67 3.99 117.34 4.98 117 6 C116.86559534 7.4564546 116.7764309 8.91740102 116.71875 10.37890625 C116.68136719 11.21744141 116.64398438 12.05597656 116.60546875 12.91992188 C116.53500059 14.68554067 116.46468878 16.45116571 116.39453125 18.21679688 C116.35714844 19.05404297 116.31976563 19.89128906 116.28125 20.75390625 C116.25095703 21.52033447 116.22066406 22.2867627 116.18945312 23.07641602 C116 25 116 25 115 27 C114.77989211 28.66428333 114.60903098 30.33524067 114.46484375 32.0078125 C114.37783203 32.99394531 114.29082031 33.98007813 114.20117188 34.99609375 C114.11416016 36.02863281 114.02714844 37.06117188 113.9375 38.125 C113.80118164 39.68541016 113.80118164 39.68541016 113.66210938 41.27734375 C113.43777631 43.85127048 113.21723225 46.42546585 113 49 C112.67 49 112.34 49 112 49 C112 32.96878046 113.50363461 16.96123086 115 1 C77.05 1 39.1 1 0 1 C0 0.67 0 0.34 0 0 Z " fill="#2E61D9" transform="translate(182,175)"/>
<path d="M0 0 C3.30752681 5.95354825 3.25989225 12.16009033 3.5625 18.8125 C3.62727539 20.13797852 3.62727539 20.13797852 3.69335938 21.49023438 C3.79891536 23.65999623 3.89991071 25.8299791 4 28 C5.74023438 28.38091797 5.74023438 28.38091797 7.515625 28.76953125 C30.96552456 33.92528995 30.96552456 33.92528995 37 36.0625 C41.88773253 37.58991642 46.94512837 38.23113603 52 39 C52 39.66 52 40.32 52 41 C56.455 40.505 56.455 40.505 61 40 C56.97737226 42.68175182 53.54958361 43.42058844 48.71234131 42.62261963 C46.07366657 41.98637355 43.47374533 41.26493449 40.8671875 40.5078125 C39.91232452 40.24241669 38.95746155 39.97702087 37.97366333 39.70358276 C34.93702931 38.85680189 31.90605991 37.99149877 28.875 37.125 C25.83575859 36.2697772 22.7954787 35.41834293 19.75491333 34.56784058 C17.86739396 34.03837768 15.98084989 33.50542219 14.09542847 32.96853638 C13.23748688 32.72513519 12.37954529 32.48173401 11.49560547 32.23095703 C10.74616669 32.01698273 9.99672791 31.80300842 9.22457886 31.58255005 C6.8312997 30.95582248 4.42974759 30.46324029 2 30 C-0.38297872 9.46808511 -0.38297872 9.46808511 0 0 Z " fill="#425EC7" transform="translate(129,346)"/>
<path d="M0 0 C-3.55165643 2.36777096 -7.09433161 3.27000053 -11.1640625 4.35546875 C-11.98011963 4.57788239 -12.79617676 4.80029602 -13.63696289 5.02944946 C-16.29832665 5.75374506 -18.96164461 6.47056636 -21.625 7.1875 C-23.46029188 7.68582307 -25.29541509 8.18476773 -27.13037109 8.68432617 C-29.87439549 9.43130704 -32.61851098 10.17792717 -35.3631897 10.92250061 C-42.46126224 12.84835593 -49.54604113 14.81744185 -56.625 16.8125 C-58.54812136 17.35045965 -60.47129704 17.88822517 -62.39453125 18.42578125 C-66.35436734 19.53414474 -70.30867253 20.66064619 -74.26171875 21.79296875 C-76.27855758 22.3622919 -78.29548137 22.93131418 -80.3125 23.5 C-81.23305176 23.7678833 -82.15360352 24.0357666 -83.10205078 24.31176758 C-83.95138184 24.54919678 -84.80071289 24.78662598 -85.67578125 25.03125 C-86.41739502 25.24330078 -87.15900879 25.45535156 -87.9230957 25.67382812 C-90.24623082 26.03866985 -91.78017534 25.71936731 -94 25 C-91.11315848 22.11315848 -87.68791322 21.9095611 -83.8125 21.125 C-73.58107345 18.94913622 -63.52020372 16.30300073 -53.46875 13.4140625 C-52.51266846 13.13933105 -51.55658691 12.86459961 -50.5715332 12.58154297 C-48.67332347 12.03423895 -46.77599604 11.48386399 -44.87963867 10.93017578 C-44.0157251 10.67993652 -43.15181152 10.42969727 -42.26171875 10.171875 C-41.48787842 9.9459668 -40.71403809 9.72005859 -39.91674805 9.48730469 C-38 9 -38 9 -36 9 C-36 8.34 -36 7.68 -36 7 C-35.42894531 6.98582031 -34.85789063 6.97164063 -34.26953125 6.95703125 C-27.58503483 6.56382558 -22.2265608 4.66410776 -16.0546875 2.14453125 C-10.7572157 0.15967289 -5.64392056 -0.17637252 0 0 Z " fill="#3753C0" transform="translate(288,486)"/>
<path d="M0 0 C0.33 0 0.66 0 1 0 C-0.48889141 28.40400334 -3.28885224 56.69198627 -6 85 C-6.33 85 -6.66 85 -7 85 C-7.05533275 81.9997352 -7.09429266 79.00054601 -7.125 76 C-7.15013672 74.77023438 -7.15013672 74.77023438 -7.17578125 73.515625 C-7.22146558 67.48529396 -6.62402402 61.68636565 -5.81167603 55.7141571 C-5.03937698 49.81743222 -4.59181608 43.92262146 -4.21875 37.98828125 C-4.12846024 36.56103226 -4.12846024 36.56103226 -4.03634644 35.10494995 C-3.79152901 31.16940761 -3.55413546 27.23347397 -3.32275391 23.29711914 C-3.14942646 20.38118171 -2.96592326 17.46601887 -2.78125 14.55078125 C-2.73222534 13.66433426 -2.68320068 12.77788727 -2.63269043 11.86457825 C-2.35350736 7.5355312 -1.9740492 3.94961846 0 0 Z " fill="#405AC2" transform="translate(359,165)"/>
<path d="M0 0 C0.33 0 0.66 0 1 0 C1.05534912 0.81678223 1.11069824 1.63356445 1.16772461 2.47509766 C1.42130191 6.19194453 1.67935662 9.90846758 1.9375 13.625 C2.02451172 14.91019531 2.11152344 16.19539063 2.20117188 17.51953125 C2.28818359 18.76347656 2.37519531 20.00742187 2.46484375 21.2890625 C2.543396 22.43068848 2.62194824 23.57231445 2.70288086 24.74853516 C2.98829485 27.87190704 3.46715899 30.91084323 4 34 C4.0620775 35.62394748 4.08712041 37.25005297 4.0625 38.875 C4.05347656 39.65617187 4.04445313 40.43734375 4.03515625 41.2421875 C4.02355469 41.82226562 4.01195313 42.40234375 4 43 C4.99652588 43.12238037 5.99305176 43.24476074 7.01977539 43.37084961 C11.00098578 43.94180637 14.82419287 44.95188067 18.68359375 46.06640625 C19.38396255 46.26475571 20.08433136 46.46310516 20.80592346 46.66746521 C23.01768317 47.29489603 25.22759163 47.92858302 27.4375 48.5625 C28.94714713 48.99195322 30.45691175 49.42099366 31.96679688 49.84960938 C35.64590611 50.89497465 39.3233699 51.94595013 43 53 C43 53.33 43 53.66 43 54 C36.98451261 53.38673725 31.38395528 52.17408932 25.5625 50.5625 C23.96011572 50.12454096 22.35725105 49.68833572 20.75390625 49.25390625 C19.97031738 49.04137207 19.18672852 48.82883789 18.37939453 48.60986328 C15.28119427 47.8157627 12.16008825 47.16463623 9.02319336 46.54272461 C6.80215949 45.94692899 4.97972797 45.16907159 3 44 C-0.27004387 37.45991226 0.87805691 28.1268959 1 21 C0.34 21 -0.32 21 -1 21 C-1.02710123 18.4374282 -1.04688771 15.87514635 -1.0625 13.3125 C-1.07087891 12.59126953 -1.07925781 11.87003906 -1.08789062 11.12695312 C-1.10543632 7.28444618 -0.93524221 3.73360474 0 0 Z " fill="#3856C5" transform="translate(84,368)"/>
<path d="M0 0 C0.33 0 0.66 0 1 0 C1.04898438 1.12535156 1.09796875 2.25070312 1.1484375 3.41015625 C1.62049129 13.37234445 2.50169542 23.13737371 4 33 C6.99977692 33.79251353 9.99986251 34.58385263 13 35.375 C14.25876953 35.70757812 14.25876953 35.70757812 15.54296875 36.046875 C19.50156145 37.09022501 23.46144905 38.11885289 27.4375 39.09375 C30.44258957 39.85820261 33.16544124 40.75988054 36 42 C36 42.66 36 43.32 36 44 C27.32292212 41.88392787 18.67421211 39.68189208 10.0625 37.3125 C8.88228271 36.99116089 8.88228271 36.99116089 7.67822266 36.66333008 C2.11951928 35.11951928 2.11951928 35.11951928 1 34 C0.77331922 32.62166168 0.60563726 31.23349022 0.46484375 29.84375 C0.37783203 28.98523438 0.29082031 28.12671875 0.20117188 27.2421875 C0.0706543 25.88480469 0.0706543 25.88480469 -0.0625 24.5 C-0.15337891 23.62601562 -0.24425781 22.75203125 -0.33789062 21.8515625 C-1.80411049 6.99092813 -1.80411049 6.99092813 0 0 Z " fill="#3C58C1" transform="translate(31,440)"/>
<path d="M0 0 C1.43577607 5.13077698 1.63250435 10.39696089 2.0625 15.6875 C2.15337891 16.73873047 2.24425781 17.78996094 2.33789062 18.87304688 C2.83999544 24.93983207 3.09560843 30.91292966 3 37 C5.64 37.33 8.28 37.66 11 38 C11 38.33 11 38.66 11 39 C4.375 39.25 4.375 39.25 1 37 C0.45169609 34.40619532 0.08979829 31.99237027 -0.16796875 29.3671875 C-0.25250809 28.61535187 -0.33704742 27.86351624 -0.42414856 27.08889771 C-0.69141981 24.68546904 -0.93965604 22.28050202 -1.1875 19.875 C-1.36528732 18.24595694 -1.54430853 16.61704803 -1.72460938 14.98828125 C-2.16641996 10.99366204 -2.58244292 6.99752613 -3 3 C-16.86 2.505 -16.86 2.505 -31 2 C-31 1.67 -31 1.34 -31 1 C-26.90659073 0.8571448 -22.81316608 0.71473966 -18.71972656 0.57275391 C-17.3268186 0.52437552 -15.93391492 0.47587355 -14.54101562 0.42724609 C-12.54037587 0.3574232 -10.53971941 0.28807969 -8.5390625 0.21875 C-6.73236084 0.1559082 -6.73236084 0.1559082 -4.88916016 0.09179688 C-3.25997501 0.04003301 -1.63000728 0 0 0 Z " fill="#D5DEF9" transform="translate(128,339)"/>
<path d="M0 0 C0.33 0 0.66 0 1 0 C0.53429152 12.42706315 -0.27344022 24.70590478 -1.77246094 37.05078125 C-2.27524188 41.35786607 -2.63834194 45.6791379 -3 50 C-6.465 50.495 -6.465 50.495 -10 51 C-9.34 50.34 -8.68 49.68 -8 49 C-7.01 49 -6.02 49 -5 49 C-4.96241577 47.59923218 -4.96241577 47.59923218 -4.92407227 46.17016602 C-4.82913072 42.71674811 -4.72988742 39.2635104 -4.62768555 35.81030273 C-4.58428187 34.31360731 -4.54261087 32.81686061 -4.50268555 31.32006836 C-4.44511384 29.17285688 -4.38138284 27.02590479 -4.31640625 24.87890625 C-4.26141968 22.93866577 -4.26141968 22.93866577 -4.20532227 20.95922852 C-4 18 -4 18 -3 17 C-2.71340329 13.44256151 -2.5509193 9.88500847 -2.37890625 6.3203125 C-2 3 -2 3 0 0 Z " fill="#4670D3" transform="translate(237,325)"/>
<path d="M0 0 C0.33 0 0.66 0 1 0 C2.04296215 7.69536941 1.81562287 14.46259732 0.546875 22.109375 C-0.47279544 29.36360186 -0.68490708 36.68652751 -1 44 C-1.66 44 -2.32 44 -3 44 C-3.309375 44.639375 -3.61875 45.27875 -3.9375 45.9375 C-5 48 -5 48 -6 49 C-8.01964199 49.07244053 -10.04167124 49.08377188 -12.0625 49.0625 C-13.16722656 49.05347656 -14.27195312 49.04445313 -15.41015625 49.03515625 C-16.69212891 49.01775391 -16.69212891 49.01775391 -18 49 C-14 47 -14 47 -4 45 C-2.68 30.15 -1.36 15.3 0 0 Z " fill="#426FCC" transform="translate(280,366)"/>
<path d="M0 0 C3.3 0 6.6 0 10 0 C10 0.66 10 1.32 10 2 C10.84304687 2.06058594 11.68609375 2.12117188 12.5546875 2.18359375 C14.19824219 2.30927734 14.19824219 2.30927734 15.875 2.4375 C17.51082031 2.55931641 17.51082031 2.55931641 19.1796875 2.68359375 C22 3 22 3 24 4 C24 4.66 24 5.32 24 6 C25.9490625 5.87625 25.9490625 5.87625 27.9375 5.75 C33.30924641 5.71589367 37.3175455 7.52040234 42 10 C41.67 10.66 41.34 11.32 41 12 C33.28241035 10.60468059 25.78928139 8.6476618 18.25 6.5 C17.15300781 6.19191406 16.05601563 5.88382812 14.92578125 5.56640625 C9.90840642 4.14937796 4.93846579 2.67473646 0 1 C0 0.67 0 0.34 0 0 Z " fill="#3756C9" transform="translate(102,493)"/>
<path d="M0 0 C0.33 0 0.66 0 1 0 C0.6943163 10.00106637 0.35919958 20.00073201 0 30 C-0.03206543 30.93972656 -0.06413086 31.87945312 -0.09716797 32.84765625 C-0.4564636 42.83485686 -1.74848898 52.27177313 -4 62 C-4.33 62 -4.66 62 -5 62 C-4.48575952 41.25039654 -2.11313568 20.63354374 0 0 Z " fill="#4F76CF" transform="translate(286,300)"/>
<path d="M0 0 C5.28 0 10.56 0 16 0 C16 0.33 16 0.66 16 1 C11.05 1 6.1 1 1 1 C1 2.65 1 4.3 1 6 C1.66 6 2.32 6 3 6 C4.19388403 34.15153143 4.19388403 34.15153143 4 46 C3.67 46 3.34 46 3 46 C1.1427059 30.59170374 -0.40157864 15.52770734 0 0 Z " fill="#3958CA" transform="translate(0,102)"/>
<path d="M0 0 C0.598125 0.226875 1.19625 0.45375 1.8125 0.6875 C0.8225 1.0175 -0.1675 1.3475 -1.1875 1.6875 C-1.44677088 8.90387271 -1.0205657 15.90414679 -0.1875 23.0625 C0.73225761 30.99106345 1.04709813 38.69813028 0.8125 46.6875 C0.1525 46.6875 -0.5075 46.6875 -1.1875 46.6875 C-1.2376123 45.95748779 -1.28772461 45.22747559 -1.33935547 44.4753418 C-1.57411293 41.1080893 -1.81825456 37.74157706 -2.0625 34.375 C-2.14113281 33.22708984 -2.21976562 32.07917969 -2.30078125 30.89648438 C-2.77170114 24.50284129 -3.48962835 18.28949519 -4.7590332 12.00317383 C-5.49758088 8.01164976 -6.18165417 4.27814667 -3.9375 0.6875 C-2.1875 -0.3125 -2.1875 -0.3125 0 0 Z " fill="#3A58C8" transform="translate(78.1875,267.3125)"/>
<path d="M0 0 C0.33 0 0.66 0 1 0 C2.43178146 8.24316897 3.32050802 16.33795052 3.75390625 24.6875 C3.91396401 27.86253079 3.91396401 27.86253079 4.50927734 30.37573242 C5.01587322 33.08488619 5.11375871 35.54726123 5.09765625 38.30078125 C5.09443359 39.27724609 5.09121094 40.25371094 5.08789062 41.25976562 C5.07951172 42.26716797 5.07113281 43.27457031 5.0625 44.3125 C5.05798828 45.33923828 5.05347656 46.36597656 5.04882812 47.42382812 C5.03708184 49.94927882 5.02065565 52.47460905 5 55 C4.67 55 4.34 55 4 55 C2.80985749 43.78227378 1.75935347 32.55871553 0.875 21.3125 C0.78750488 20.22727051 0.70000977 19.14204102 0.60986328 18.02392578 C0.14690972 11.99435149 -0.08864916 6.0471391 0 0 Z " fill="#CDDAFB" transform="translate(83,347)"/>
<path d="M0 0 C0.33 0 0.66 0 1 0 C4.85298845 9.12791311 4.28526127 18.30111692 4 28 C7.63 28 11.26 28 15 28 C15.33 28.66 15.66 29.32 16 30 C11.38 30 6.76 30 2 30 C1.66123591 26.68797606 1.32885683 23.37551038 1 20.0625 C0.90460938 19.13630859 0.80921875 18.21011719 0.7109375 17.25585938 C0.14258953 11.47088893 -0.09538785 5.81269724 0 0 Z " fill="#D7DFFA" transform="translate(77,285)"/>
<path d="M0 0 C0.99 0.33 1.98 0.66 3 1 C2.67 1.99 2.34 2.98 2 4 C1.86559534 5.4564546 1.7764309 6.91740102 1.71875 8.37890625 C1.68136719 9.21744141 1.64398438 10.05597656 1.60546875 10.91992188 C1.53500059 12.68554067 1.46468878 14.45116571 1.39453125 16.21679688 C1.35714844 17.05404297 1.31976563 17.89128906 1.28125 18.75390625 C1.25095703 19.52033447 1.22066406 20.2867627 1.18945312 21.07641602 C1 23 1 23 0 25 C-0.22010789 26.66428333 -0.39096902 28.33524067 -0.53515625 30.0078125 C-0.62216797 30.99394531 -0.70917969 31.98007813 -0.79882812 32.99609375 C-0.88583984 34.02863281 -0.97285156 35.06117188 -1.0625 36.125 C-1.19881836 37.68541016 -1.19881836 37.68541016 -1.33789062 39.27734375 C-1.56222369 41.85127048 -1.78276775 44.42546585 -2 47 C-2.33 47 -2.66 47 -3 47 C-3.68881869 31.25921732 -1.66040432 15.62664206 0 0 Z " fill="#4670D1" transform="translate(297,177)"/>
<path d="M0 0 C3.53008536 0.50429791 7.04985091 1.00874577 10.5625 1.625 C13.9842819 1.9982853 16.65453876 1.73436954 20 1 C19.01 1.495 19.01 1.495 18 2 C18 2.66 18 3.32 18 4 C16.35 4 14.7 4 13 4 C13 18.85 13 33.7 13 49 C12.67 49 12.34 49 12 49 C12 34.15 12 19.3 12 4 C10.35 4 8.7 4 7 4 C4.53895377 3.20027898 2.35067664 2.10620077 0 1 C0 0.67 0 0.34 0 0 Z " fill="#2A5AEB" transform="translate(170,434)"/>
<path d="M0 0 C14.52 0 29.04 0 44 0 C44 0.33 44 0.66 44 1 C39.46534937 1.16914327 34.93049926 1.3295197 30.39526367 1.48217773 C28.85611874 1.53517393 27.31705082 1.59046331 25.77807617 1.64819336 C17.77266112 1.94699983 9.95088182 2.22112519 2 1 C2.16298584 1.60231445 2.32597168 2.20462891 2.49389648 2.82519531 C3.12018148 5.51643831 3.0953592 7.98982693 3.0625 10.75 C3.05347656 11.73484375 3.04445313 12.7196875 3.03515625 13.734375 C3.02355469 14.48203125 3.01195313 15.2296875 3 16 C2.67 16 2.34 16 2 16 C1.77213542 13.94921875 1.54427083 11.8984375 1.31640625 9.84765625 C1.18113386 7.98859771 1.18113386 7.98859771 0 7 C0 4.69 0 2.38 0 0 Z " fill="#E8F1FE" transform="translate(82,339)"/>
<path d="M0 0 C-3.0352519 2.02350127 -5.24039843 2.75280355 -8.734375 3.69140625 C-9.86617188 3.99626953 -10.99796875 4.30113281 -12.1640625 4.61523438 C-13.34742188 4.92783203 -14.53078125 5.24042969 -15.75 5.5625 C-16.91789062 5.87896484 -18.08578125 6.19542969 -19.2890625 6.52148438 C-24.84630038 8.00530469 -30.27578526 9.38908234 -36 10 C-35.67 9.01 -35.34 8.02 -35 7 C-33.97519531 6.80664062 -32.95039063 6.61328125 -31.89453125 6.4140625 C-30.53380399 6.15130137 -29.17312967 5.88826602 -27.8125 5.625 C-27.13896484 5.49867188 -26.46542969 5.37234375 -25.77148438 5.2421875 C-21.97731576 4.50186192 -18.53991968 3.54559873 -15 2 C-9.73358452 0.21140606 -5.48891649 -0.19259356 0 0 Z " fill="#3853C3" transform="translate(324,476)"/>
<path d="M0 0 C0.33 0 0.66 0 1 0 C1 2.97 1 5.94 1 9 C1.99652588 9.12238037 2.99305176 9.24476074 4.01977539 9.37084961 C8.00098578 9.94180637 11.82419287 10.95188067 15.68359375 12.06640625 C16.73414696 12.36393044 16.73414696 12.36393044 17.80592346 12.66746521 C20.01768317 13.29489603 22.22759163 13.92858302 24.4375 14.5625 C25.94714713 14.99195322 27.45691175 15.42099366 28.96679688 15.84960938 C32.64590611 16.89497465 36.3233699 17.94595013 40 19 C40 19.33 40 19.66 40 20 C33.98451261 19.38673725 28.38395528 18.17408932 22.5625 16.5625 C20.96011572 16.12454096 19.35725105 15.68833572 17.75390625 15.25390625 C16.97031738 15.04137207 16.18672852 14.82883789 15.37939453 14.60986328 C12.28119427 13.8157627 9.16008825 13.16463623 6.02319336 12.54272461 C4 12 4 12 0 10 C0 6.7 0 3.4 0 0 Z " fill="#3A55BC" transform="translate(87,402)"/>
<path d="M0 0 C13.85701938 3.03122299 27.41531156 6.93094065 41 11 C41 11.33 41 11.66 41 12 C36.28007703 11.4553935 31.57401671 10.82809477 26.875 10.125 C25.90304688 9.98320312 24.93109375 9.84140625 23.9296875 9.6953125 C20.62526903 8.91106385 18.02780499 7.52729986 15 6 C11.33762269 4.88742916 7.65318739 3.92857227 3.94921875 2.96484375 C2.97597656 2.64644531 2.00273437 2.32804687 1 2 C0.67 1.34 0.34 0.68 0 0 Z " fill="#3955C1" transform="translate(129,422)"/>
<path d="M0 0 C0.33 0 0.66 0 1 0 C1.18451025 19.96810934 1.18451025 19.96810934 0 29 C-0.66 29 -1.32 29 -2 29 C-2.02888514 25.85418577 -2.04675923 22.70840531 -2.0625 19.5625 C-2.07087891 18.66466797 -2.07925781 17.76683594 -2.08789062 16.84179688 C-2.09111328 15.98779297 -2.09433594 15.13378906 -2.09765625 14.25390625 C-2.10551147 13.06776733 -2.10551147 13.06776733 -2.11352539 11.85766602 C-2 10 -2 10 -1 9 C-0.76807135 7.48530552 -0.58784762 5.96245438 -0.4375 4.4375 C-0.35371094 3.61121094 -0.26992188 2.78492188 -0.18359375 1.93359375 C-0.12300781 1.29550781 -0.06242187 0.65742188 0 0 Z " fill="#2F4FC6" transform="translate(337,397)"/>
<path d="M0 0 C0.33 0 0.66 0 1 0 C1.33931227 2.66602496 1.67157176 5.33263014 2 8 C2.14308594 9.11568359 2.14308594 9.11568359 2.2890625 10.25390625 C3.18949181 17.65028991 3.22714392 24.63713647 2 32 C1.67 32 1.34 32 1 32 C-0.39315424 21.37719894 -0.09675083 10.68873373 0 0 Z " fill="#4560CC" transform="translate(81,339)"/>
<path d="M0 0 C21.23404255 1.23404255 21.23404255 1.23404255 25 5 C27.32817964 5.36760731 29.6618385 5.70241581 32 6 C28.73807534 8.17461644 27.86662292 8.14496993 24.17138672 7.48486328 C19.59192204 6.46228437 15.07941013 5.20411566 10.5625 3.9375 C9.54478516 3.65583984 8.52707031 3.37417969 7.47851562 3.08398438 C4.98457872 2.39317556 2.49181351 1.69842182 0 1 C0 0.67 0 0.34 0 0 Z " fill="#405CC5" transform="translate(144,505)"/>
<path d="M0 0 C1.0621875 0.26554687 2.124375 0.53109375 3.21875 0.8046875 C4.24742187 1.06185547 4.24742187 1.06185547 5.296875 1.32421875 C6.02390625 1.50597656 6.7509375 1.68773437 7.5 1.875 C8.19609375 2.04902344 8.8921875 2.22304688 9.609375 2.40234375 C12.51171875 3.12792969 15.4140625 3.85351562 18.31640625 4.57910156 C19.04730469 4.76182617 19.77820313 4.94455078 20.53125 5.1328125 C21.6759375 5.41898437 22.820625 5.70515625 24 6 C24 6.33 24 6.66 24 7 C22.58344207 7.0272415 21.16672955 7.04650467 19.75 7.0625 C18.56664062 7.07990234 18.56664062 7.07990234 17.359375 7.09765625 C15.08786424 7.00363676 13.19405195 6.54851299 11 6 C8.31850007 6.38567131 8.31850007 6.38567131 6 7 C6 5.68 6 4.36 6 3 C3.03 2.505 3.03 2.505 0 2 C0 1.34 0 0.68 0 0 Z " fill="#DAE3FB" transform="translate(156,382)"/>
<path d="M0 0 C2.48007234 4.46413021 3.08822555 8.81070862 3.31640625 13.86328125 C3.35830078 14.74951172 3.40019531 15.63574219 3.44335938 16.54882812 C3.48267578 17.46083984 3.52199219 18.37285156 3.5625 19.3125 C3.62727539 20.70952148 3.62727539 20.70952148 3.69335938 22.13476562 C3.79897225 24.42304454 3.90107752 26.71142372 4 29 C3.34 29 2.68 29 2 29 C-0.38297872 9.65957447 -0.38297872 9.65957447 0 0 Z " fill="#3855C2" transform="translate(129,346)"/>
<path d="M0 0 C0.33 0 0.66 0 1 0 C1.14841673 7.43526601 0.69670763 14.72483517 0 22.125 C-0.09539062 23.176875 -0.19078125 24.22875 -0.2890625 25.3125 C-0.52205282 27.87539348 -0.75909676 30.43784031 -1 33 C-1.33 33 -1.66 33 -2 33 C-2.05872928 29.1875662 -2.09383916 25.37525094 -2.125 21.5625 C-2.14175781 20.49322266 -2.15851563 19.42394531 -2.17578125 18.32226562 C-2.21520778 11.87602841 -1.66458433 6.23236102 0 0 Z " fill="#3E5AC2" transform="translate(351,250)"/>
<path d="M0 0 C8.5772577 -0.48550515 16.11231244 1.73122858 24 5 C24 5.66 24 6.32 24 7 C17.89453125 5.47363281 11.7890625 3.94726562 5.68359375 2.42089844 C4.58724609 2.14681152 4.58724609 2.14681152 3.46875 1.8671875 C2.3240625 1.58101563 1.179375 1.29484375 0 1 C0 0.67 0 0.34 0 0 Z " fill="#415EC7" transform="translate(43,477)"/>
<path d="M0 0 C-2.58772001 3.30001925 -5.00783173 3.58306378 -9.0625 4.125 C-13.17128074 4.60928806 -13.17128074 4.60928806 -17 6 C-19.6723621 6.13415472 -22.32250488 6.04318541 -25 6 C-20.639215 3.67478438 -16.13326126 2.55888038 -11.375 1.3125 C-10.50359375 1.07466797 -9.6321875 0.83683594 -8.734375 0.59179688 C-7.90164062 0.37201172 -7.06890625 0.15222656 -6.2109375 -0.07421875 C-5.45087402 -0.27619873 -4.69081055 -0.47817871 -3.90771484 -0.6862793 C-2 -1 -2 -1 0 0 Z " fill="#D3E6FA" transform="translate(234,376)"/>
<path d="M0 0 C0.66 0.33 1.32 0.66 2 1 C2.48350422 8.89723556 0.67664721 16.33532703 -1 24 C-1.33 24 -1.66 24 -2 24 C-1.86116581 20.56217969 -1.71272946 17.12483971 -1.5625 13.6875 C-1.52318359 12.71103516 -1.48386719 11.73457031 -1.44335938 10.72851562 C-1.40146484 9.79072266 -1.35957031 8.85292969 -1.31640625 7.88671875 C-1.27974854 7.02264404 -1.24309082 6.15856934 -1.20532227 5.26831055 C-1 3 -1 3 0 0 Z " fill="#4570D1" transform="translate(283,338)"/>
<path d="M0 0 C0.33 0 0.66 0 1 0 C0.67 6.6 0.34 13.2 0 20 C-3.76687864 21.88343932 -5.02958963 22.22057835 -9 22 C-8.34 21.67 -7.68 21.34 -7 21 C-7 20.34 -7 19.68 -7 19 C-5.35 19 -3.7 19 -2 19 C-1.93941406 17.87980469 -1.87882812 16.75960938 -1.81640625 15.60546875 C-1.73198576 14.13280016 -1.64733851 12.66014456 -1.5625 11.1875 C-1.50352539 10.08051758 -1.50352539 10.08051758 -1.44335938 8.95117188 C-1.25618965 5.76928658 -1.01279207 3.03837622 0 0 Z " fill="#4662C0" transform="translate(333,454)"/>
<path d="M0 0 C0.33 1.32 0.66 2.64 1 4 C1.94875 3.938125 2.8975 3.87625 3.875 3.8125 C8.73522401 3.8125 13.59504725 4.94941855 18 7 C18.33 7.99 18.66 8.98 19 10 C12.63583076 8.43247063 6.28643343 6.85735533 0 5 C0 3.35 0 1.7 0 0 Z " fill="#CEDAFB" transform="translate(88,406)"/>
<path d="M0 0 C5.63281599 -0.2396943 10.54538831 0.61470179 16 2 C16 2.66 16 3.32 16 4 C18.475 4.495 18.475 4.495 21 5 C17.87820592 6.00693162 16.01030331 5.97289724 12.890625 5.00390625 C11.75947266 4.66069336 11.75947266 4.66069336 10.60546875 4.31054688 C9.43951172 3.94026367 9.43951172 3.94026367 8.25 3.5625 C7.45722656 3.31951172 6.66445312 3.07652344 5.84765625 2.82617188 C3.89564654 2.22645805 1.94743117 1.61441879 0 1 C0 0.67 0 0.34 0 0 Z " fill="#BDCDF7" transform="translate(163,431)"/>
<path d="M0 0 C5.15171623 -0.09038099 9.91913204 0.15318867 15 1 C15 1.66 15 2.32 15 3 C15.99 3 16.98 3 18 3 C18 3.66 18 4.32 18 5 C11.80759538 4.31195504 5.98044406 2.71951285 0 1 C0 0.67 0 0.34 0 0 Z " fill="#4360C9" transform="translate(68,484)"/>
<path d="M0 0 C1.15371094 0.27457031 2.30742187 0.54914063 3.49609375 0.83203125 C4.65238281 1.09371094 5.80867187 1.35539062 7 1.625 C9.93359375 2.64453125 9.93359375 2.64453125 11.93359375 5.64453125 C5.74118913 4.95648629 -0.08596219 3.3640441 -6.06640625 1.64453125 C-3.06640625 -0.35546875 -3.06640625 -0.35546875 0 0 Z " fill="#CED8F9" transform="translate(133.06640625,420.35546875)"/>
<path d="M0 0 C0.6875 1.8125 0.6875 1.8125 1 4 C-0.09375 5.625 -0.09375 5.625 -2 7 C-4.91796875 7.29296875 -4.91796875 7.29296875 -8.1875 7.1875 C-9.27417969 7.16042969 -10.36085938 7.13335937 -11.48046875 7.10546875 C-12.31191406 7.07066406 -13.14335937 7.03585937 -14 7 C-10.9530371 5.30566082 -8.17178534 4.50532888 -4.75 3.875 C-3.41195313 3.62363281 -3.41195313 3.62363281 -2.046875 3.3671875 C-1.37140625 3.24601562 -0.6959375 3.12484375 0 3 C0 2.01 0 1.02 0 0 Z " fill="#4B76D9" transform="translate(276,408)"/>
<path d="M0 0 C0.66 0 1.32 0 2 0 C1.85924795 2.93782469 1.7126162 5.87515171 1.5625 8.8125 C1.50352539 10.06256836 1.50352539 10.06256836 1.44335938 11.33789062 C1.40146484 12.14033203 1.35957031 12.94277344 1.31640625 13.76953125 C1.27974854 14.50792236 1.24309082 15.24631348 1.20532227 16.00708008 C1 18 1 18 0 21 C-0.99 21 -1.98 21 -3 21 C-2.68289063 20.52046875 -2.36578125 20.0409375 -2.0390625 19.546875 C-0.52584233 15.83777894 -0.53308589 12.22190798 -0.375 8.25 C-0.33632813 7.45722656 -0.29765625 6.66445313 -0.2578125 5.84765625 C-0.163892 3.89880584 -0.08087178 1.94943549 0 0 Z " fill="#DFF4FE" transform="translate(276,390)"/>
<path d="M0 0 C-2.92910944 1.95273962 -5.08132291 2.75396363 -8.4375 3.6875 C-9.38496094 3.95949219 -10.33242187 4.23148437 -11.30859375 4.51171875 C-13.98918237 4.99803744 -15.46287583 4.89369149 -18 4 C-17.01 4 -16.02 4 -15 4 C-14.67 3.01 -14.34 2.02 -14 1 C-4.58997722 -0.14806378 -4.58997722 -0.14806378 0 0 Z " fill="#3A68CF" transform="translate(227,376)"/>
<path d="M0 0 C0.33 0 0.66 0 1 0 C1.3690205 17.85649203 1.3690205 17.85649203 -1 26 C-1.33 26 -1.66 26 -2 26 C-2.02698189 24.37509046 -2.04638757 22.75005367 -2.0625 21.125 C-2.07410156 20.22007812 -2.08570313 19.31515625 -2.09765625 18.3828125 C-2 16 -2 16 -1 14 C-0.76970044 11.62876754 -0.58880058 9.25258057 -0.4375 6.875 C-0.35371094 5.59367188 -0.26992187 4.31234375 -0.18359375 2.9921875 C-0.09271484 1.51105469 -0.09271484 1.51105469 0 0 Z " fill="#2D63E0" transform="translate(243,234)"/>
<path d="M0 0 C3.53008536 0.50429791 7.04985091 1.00874577 10.5625 1.625 C13.9842819 1.9982853 16.65453876 1.73436954 20 1 C19.01 1.495 19.01 1.495 18 2 C18 2.66 18 3.32 18 4 C11.18401613 4.33278764 6.07877934 4.24201565 0 1 C0 0.67 0 0.34 0 0 Z " fill="#3A5DC4" transform="translate(170,434)"/>
<path d="M0 0 C0.33 0 0.66 0 1 0 C2.33257403 12.66970387 2.33257403 12.66970387 1 18 C0.34 18 -0.32 18 -1 18 C-0.505 9.09 -0.505 9.09 0 0 Z " fill="#4A74D6" transform="translate(280,366)"/>
<path d="M0 0 C4.62 0 9.24 0 14 0 C14 0.66 14 1.32 14 2 C14.66 2 15.32 2 16 2 C16 2.66 16 3.32 16 4 C10.49191603 3.40984815 5.35121931 2.43336231 0 1 C0 0.67 0 0.34 0 0 Z " fill="#3A58C7" transform="translate(86,489)"/>
<path d="M0 0 C-1.11328125 1.48828125 -1.11328125 1.48828125 -3 3 C-5.91796875 3.29296875 -5.91796875 3.29296875 -9.1875 3.1875 C-10.27417969 3.16042969 -11.36085937 3.13335938 -12.48046875 3.10546875 C-13.31191406 3.07066406 -14.14335937 3.03585937 -15 3 C-5.21459227 -2.08583691 -5.21459227 -2.08583691 0 0 Z " fill="#D9E7FC" transform="translate(198,513)"/>
<path d="M0 0 C1.93833996 0.08715017 3.8757429 0.19532964 5.8125 0.3125 C7.43091797 0.39951172 7.43091797 0.39951172 9.08203125 0.48828125 C12.17497517 1.03068507 13.13022903 1.55289624 15 4 C11.8568669 5.57156655 9.634536 4.11705576 6.375 3.0625 C4.59222656 2.49208984 4.59222656 2.49208984 2.7734375 1.91015625 C1.85820312 1.60980469 0.94296875 1.30945313 0 1 C0 0.67 0 0.34 0 0 Z " fill="#C7D4F8" transform="translate(146,426)"/>
<path d="M0 0 C1.98 0 3.96 0 6 0 C4.68 0.33 3.36 0.66 2 1 C2.16371094 1.54140625 2.32742187 2.0828125 2.49609375 2.640625 C3.08590587 5.40222593 3.09609308 7.92818139 3.0625 10.75 C3.05347656 11.73484375 3.04445313 12.7196875 3.03515625 13.734375 C3.02355469 14.48203125 3.01195313 15.2296875 3 16 C2.67 16 2.34 16 2 16 C1.77213542 13.94921875 1.54427083 11.8984375 1.31640625 9.84765625 C1.18113386 7.98859771 1.18113386 7.98859771 0 7 C-0.04092937 4.66702567 -0.04241723 2.33294775 0 0 Z " fill="#DCE7FC" transform="translate(82,339)"/>
<path d="M0 0 C0 0.66 0 1.32 0 2 C-5.99320151 3.45933748 -11.85845775 4.41509121 -18 5 C-15.05585347 3.03723564 -12.94101364 2.28266038 -9.5625 1.375 C-8.61503906 1.11460937 -7.66757812 0.85421875 -6.69140625 0.5859375 C-4 0 -4 0 0 0 Z " fill="#D4E2FA" transform="translate(328,476)"/>
<path d="M0 0 C0.33 0 0.66 0 1 0 C1.05449838 1.72880982 1.09301688 3.45812712 1.125 5.1875 C1.14820313 6.15042969 1.17140625 7.11335937 1.1953125 8.10546875 C0.9913544 11.12812778 0.26874632 13.26769985 -1 16 C-1.33 16 -1.66 16 -2 16 C-1.85890014 13.89551062 -1.71195825 11.7914123 -1.5625 9.6875 C-1.48128906 8.51574219 -1.40007812 7.34398437 -1.31640625 6.13671875 C-1 3 -1 3 0 0 Z " fill="#294BC9" transform="translate(359,154)"/>
<path d="M0 0 C6.4 -0.49230769 6.4 -0.49230769 9.4375 2 C10.2109375 2.99 10.2109375 2.99 11 4 C3.375 3.125 3.375 3.125 0 2 C0 1.34 0 0.68 0 0 Z " fill="#CDD8F8" transform="translate(109,415)"/>
<path d="M0 0 C-4.56327794 3.53286034 -8.49633208 3.32374517 -14 3 C-9.7368213 0.15788087 -5.03577274 -2.0143091 0 0 Z " fill="#D5E4FA" transform="translate(299,485)"/>
<path d="M0 0 C1.58467728 0.28427417 3.1677057 0.57774818 4.75 0.875 C6.07257813 1.11863281 6.07257813 1.11863281 7.421875 1.3671875 C10 2 10 2 14 4 C11.03 4 8.06 4 5 4 C5 3.34 5 2.68 5 2 C3.35 1.67 1.7 1.34 0 1 C0 0.67 0 0.34 0 0 Z " fill="#E5F0FF" transform="translate(166,512)"/>
<path d="M0 0 C0.33 0 0.66 0 1 0 C1 1.98 1 3.96 1 6 C-1.64 6.33 -4.28 6.66 -7 7 C-6.34 6.67 -5.68 6.34 -5 6 C-5 5.34 -5 4.68 -5 4 C-3.35 4 -1.7 4 0 4 C0 2.68 0 1.36 0 0 Z " fill="#3A55C6" transform="translate(331,469)"/>
<path d="M0 0 C0.33 0 0.66 0 1 0 C1 2.97 1 5.94 1 9 C3.31 9.33 5.62 9.66 8 10 C6.25 11.125 6.25 11.125 4 12 C2.68 11.34 1.36 10.68 0 10 C0 6.7 0 3.4 0 0 Z " fill="#5169CC" transform="translate(87,402)"/>
<path d="M0 0 C1.258125 -0.020625 2.51625 -0.04125 3.8125 -0.0625 C4.52019531 -0.07410156 5.22789062 -0.08570313 5.95703125 -0.09765625 C8 0 8 0 11 1 C11 1.66 11 2.32 11 3 C9.741875 2.87625 8.48375 2.7525 7.1875 2.625 C6.12595703 2.52058594 6.12595703 2.52058594 5.04296875 2.4140625 C3 2 3 2 0 0 Z " fill="#4F65C9" transform="translate(143,378)"/>
<path d="M0 0 C0 0.66 0 1.32 0 2 C-3.21451269 3.60725635 -6.43612536 3.05748185 -10 3 C-6.26223701 0.50815801 -4.5227786 0 0 0 Z " fill="#D0DEF9" transform="translate(230,503)"/>
<path d="M0 0 C1.258125 -0.04125 2.51625 -0.0825 3.8125 -0.125 C4.52019531 -0.14820313 5.22789062 -0.17140625 5.95703125 -0.1953125 C8 0 8 0 11 2 C6.99799622 3.60080151 3.95443764 2.29279692 0 1 C0 0.67 0 0.34 0 0 Z " fill="#4F6AC9" transform="translate(133,502)"/>
<path d="M0 0 C-2.97 1.32 -5.94 2.64 -9 4 C-9.66 3.34 -10.32 2.68 -11 2 C-4.5 -1.125 -4.5 -1.125 0 0 Z " fill="#D1E4FA" transform="translate(194,387)"/>
<path d="M0 0 C0.99 0.33 1.98 0.66 3 1 C3 2.98 3 4.96 3 7 C2.01 7.495 2.01 7.495 1 8 C0.67 5.36 0.34 2.72 0 0 Z " fill="#2F4ECB" transform="translate(128,338)"/>
<path d="M0 0 C3.3 0 6.6 0 10 0 C6.09567131 1.95216435 3.27786748 2.50639991 -1 3 C-0.67 2.01 -0.34 1.02 0 0 Z " fill="#DFF2FE" transform="translate(263,411)"/>
<path d="M0 0 C3.125 -0.1875 3.125 -0.1875 6 0 C6 0.66 6 1.32 6 2 C3.36 2.33 0.72 2.66 -2 3 C-1.34 2.01 -0.68 1.02 0 0 Z " fill="#3654C5" transform="translate(196,509)"/>
</svg>
