<?xml version="1.0" standalone="no"?>
<!DOCTYPE svg PUBLIC "-//W3C//DTD SVG 20010904//EN"
 "http://www.w3.org/TR/2001/REC-SVG-20010904/DTD/svg10.dtd">
<svg version="1.0" xmlns="http://www.w3.org/2000/svg"
 width="48.000000pt" height="48.000000pt" viewBox="0 0 48.000000 48.000000"
 preserveAspectRatio="xMidYMid meet">

<g transform="translate(0.000000,48.000000) scale(0.100000,-0.100000)"
fill="#000000" stroke="none">
<path d="M32 408 c-8 -8 -12 -54 -12 -140 0 -116 2 -128 19 -138 12 -6 96 -10
205 -10 154 0 187 3 200 16 13 12 16 39 16 130 0 64 -5 124 -10 135 -10 18
-23 19 -208 19 -141 0 -201 -3 -210 -12z"/>
<path d="M170 85 c0 -8 -4 -15 -10 -15 -5 0 -10 -7 -10 -15 0 -12 17 -15 90
-15 73 0 90 3 90 15 0 8 -4 15 -10 15 -5 0 -10 7 -10 15 0 18 -41 20 -58 3 -9
-9 -15 -9 -24 0 -17 17 -58 15 -58 -3z"/>
</g>
</svg>
