<?xml version="1.0" encoding="UTF-8"?>
<!DOCTYPE svg PUBLIC "-//W3C//DTD SVG 1.1//EN" "http://www.w3.org/Graphics/SVG/1.1/DTD/svg11.dtd">
<svg xmlns="http://www.w3.org/2000/svg" version="1.1" width="48px" height="48px" style="shape-rendering:geometricPrecision; text-rendering:geometricPrecision; image-rendering:optimizeQuality; fill-rule:evenodd; clip-rule:evenodd" xmlns:xlink="http://www.w3.org/1999/xlink">
<g><path style="opacity:0.753" fill="#000000" d="M 16.5,3.5 C 21.1785,3.33418 25.8452,3.50085 30.5,4C 33.3333,5.5 35.5,7.66667 37,10.5C 37.6667,19.1667 37.6667,27.8333 37,36.5C 35.5,39.3333 33.3333,41.5 30.5,43C 25.8333,43.6667 21.1667,43.6667 16.5,43C 13.6667,41.5 11.5,39.3333 10,36.5C 9.33333,27.8333 9.33333,19.1667 10,10.5C 11.6941,7.64238 13.8607,5.30904 16.5,3.5 Z M 28.5,18.5 C 28.5,17.5 28.5,16.5 28.5,15.5C 25.1667,16.8333 21.8333,16.8333 18.5,15.5C 18.5,16.5 18.5,17.5 18.5,18.5C 11.9106,14.4181 12.4106,10.7514 20,7.5C 20.5,7.66667 21,7.83333 21.5,8C 19.393,9.26351 18.393,11.0968 18.5,13.5C 21.8333,12.1667 25.1667,12.1667 28.5,13.5C 28.607,11.0968 27.607,9.26351 25.5,8C 30.0394,7.69469 32.7061,9.86136 33.5,14.5C 32.4297,16.5403 30.7631,17.8736 28.5,18.5 Z M 21.5,21.5 C 22.8333,21.5 24.1667,21.5 25.5,21.5C 28.3472,22.7101 31.1805,22.3768 34,20.5C 35.2836,26.8954 34.1169,32.7287 30.5,38C 25.8333,41.3333 21.1667,41.3333 16.5,38C 12.8831,32.7287 11.7164,26.8954 13,20.5C 15.8195,22.3768 18.6528,22.7101 21.5,21.5 Z"/></g>
<g><path style="opacity:0.692" fill="#000000" d="M 28.5,18.5 C 27.8333,18.5 27.5,18.8333 27.5,19.5C 26.8333,19.5 26.5,19.8333 26.5,20.5C 25.8333,20.5 25.5,20.8333 25.5,21.5C 24.1667,21.5 22.8333,21.5 21.5,21.5C 21.5,20.8333 21.1667,20.5 20.5,20.5C 20.5,19.8333 20.1667,19.5 19.5,19.5C 19.5,18.8333 19.1667,18.5 18.5,18.5C 18.5,17.5 18.5,16.5 18.5,15.5C 21.8333,16.8333 25.1667,16.8333 28.5,15.5C 28.5,16.5 28.5,17.5 28.5,18.5 Z"/></g>
</svg>
