<?xml version="1.0" standalone="no"?>
<!DOCTYPE svg PUBLIC "-//W3C//DTD SVG 20010904//EN"
 "http://www.w3.org/TR/2001/REC-SVG-20010904/DTD/svg10.dtd">
<svg version="1.0" xmlns="http://www.w3.org/2000/svg"
 width="48.000000pt" height="48.000000pt" viewBox="0 0 48.000000 48.000000"
 preserveAspectRatio="xMidYMid meet">

<g transform="translate(0.000000,48.000000) scale(0.100000,-0.100000)"
fill="#000000" stroke="none">
<path d="M260 378 c-5 -13 -26 -81 -46 -151 -26 -94 -33 -132 -25 -140 7 -7
14 -8 21 -1 14 14 91 286 85 302 -7 19 -25 14 -35 -10z"/>
<path d="M73 296 l-58 -54 35 -37 c54 -57 89 -80 103 -66 8 8 0 23 -33 56
l-44 45 43 44 c39 39 47 66 21 66 -5 0 -35 -24 -67 -54z"/>
<path d="M324 339 c-3 -6 13 -31 37 -55 l43 -44 -44 -45 c-33 -33 -41 -48 -33
-56 14 -14 49 9 103 66 l35 37 -58 54 c-60 56 -71 62 -83 43z"/>
</g>
</svg>
