<?xml version="1.0" standalone="no"?>
<!DOCTYPE svg PUBLIC "-//W3C//DTD SVG 20010904//EN"
 "http://www.w3.org/TR/2001/REC-SVG-20010904/DTD/svg10.dtd">
<svg version="1.0" xmlns="http://www.w3.org/2000/svg"
 width="48.000000pt" height="48.000000pt" viewBox="0 0 48.000000 48.000000"
 preserveAspectRatio="xMidYMid meet">

<g transform="translate(0.000000,48.000000) scale(0.100000,-0.100000)"
fill="#000000" stroke="none">
<path d="M141 363 l-94 -56 96 -49 97 -48 97 48 96 49 -85 51 c-47 28 -91 54
-99 57 -8 3 -56 -20 -108 -52z m111 -5 c2 -15 11 -24 26 -26 30 -4 28 -20 -3
-28 -16 -4 -25 -13 -25 -25 0 -10 -4 -19 -10 -19 -5 0 -10 9 -10 19 0 12 -9
21 -25 25 -31 8 -33 24 -2 28 14 2 23 11 25 26 2 12 7 22 12 22 5 0 10 -10 12
-22z"/>
<path d="M40 185 c0 -126 -1 -125 200 -125 201 0 200 -1 200 125 0 47 -2 85
-4 85 -2 0 -46 -20 -99 -45 l-95 -45 -97 45 c-53 25 -99 45 -101 45 -2 0 -4
-38 -4 -85z"/>
</g>
</svg>
