<?xml version="1.0" standalone="no"?>
<!DOCTYPE svg PUBLIC "-//W3C//DTD SVG 20010904//EN"
 "http://www.w3.org/TR/2001/REC-SVG-20010904/DTD/svg10.dtd">
<svg version="1.0" xmlns="http://www.w3.org/2000/svg"
 width="48.000000pt" height="48.000000pt" viewBox="0 0 48.000000 48.000000"
 preserveAspectRatio="xMidYMid meet">

<g transform="translate(0.000000,48.000000) scale(0.100000,-0.100000)"
fill="#000000" stroke="none">
<path d="M173 430 c-10 -11 -29 -20 -43 -20 -46 0 -50 -13 -50 -182 0 -145 1
-158 19 -168 11 -5 76 -10 145 -10 100 0 128 3 140 16 13 13 16 42 16 160 0
81 -5 154 -10 165 -7 12 -21 19 -38 19 -15 0 -35 9 -45 20 -13 15 -29 20 -67
20 -38 0 -54 -5 -67 -20z m117 -25 c0 -11 -12 -15 -50 -15 -38 0 -50 4 -50 15
0 11 12 15 50 15 38 0 50 -4 50 -15z m24 -127 c9 -15 2 -27 -44 -72 -30 -30
-68 -58 -84 -62 -28 -7 -29 -6 -22 22 9 34 105 136 125 132 8 -2 19 -11 25
-20z"/>
</g>
</svg>
