<?xml version="1.0" encoding="UTF-8"?>
<!DOCTYPE svg PUBLIC "-//W3C//DTD SVG 1.1//EN" "http://www.w3.org/Graphics/SVG/1.1/DTD/svg11.dtd">
<svg xmlns="http://www.w3.org/2000/svg" version="1.1" width="48px" height="48px" style="shape-rendering:geometricPrecision; text-rendering:geometricPrecision; image-rendering:optimizeQuality; fill-rule:evenodd; clip-rule:evenodd" xmlns:xlink="http://www.w3.org/1999/xlink">
<g><path style="opacity:0.943" fill="#e75200" d="M 6.5,4.5 C 17.8333,4.5 29.1667,4.5 40.5,4.5C 40.0585,15.8572 39.2252,27.1906 38,38.5C 28.3333,43.8333 18.6667,43.8333 9,38.5C 7.77482,27.1906 6.94148,15.8572 6.5,4.5 Z"/></g>
<g><path style="opacity:1" fill="#fc6d07" d="M 23.5,34.5 C 26.1123,33.6295 28.779,32.9628 31.5,32.5C 31.5,28.5 31.5,24.5 31.5,20.5C 27.1667,20.5 22.8333,20.5 18.5,20.5C 18.5,19.1667 18.5,17.8333 18.5,16.5C 23.1667,16.5 27.8333,16.5 32.5,16.5C 32.5,15.1667 32.5,13.8333 32.5,12.5C 29.5,12.5 26.5,12.5 23.5,12.5C 23.5,10.8333 23.5,9.16667 23.5,7.5C 27.8333,7.5 32.1667,7.5 36.5,7.5C 36.098,16.8347 35.598,26.1681 35,35.5C 31.3333,36.8333 27.6667,38.1667 24,39.5C 23.5065,37.8659 23.3398,36.1992 23.5,34.5 Z"/></g>
<g><path style="opacity:1" fill="#f8f2ef" d="M 23.5,12.5 C 26.5,12.5 29.5,12.5 32.5,12.5C 32.5,13.8333 32.5,15.1667 32.5,16.5C 27.8333,16.5 23.1667,16.5 18.5,16.5C 18.5,17.8333 18.5,19.1667 18.5,20.5C 22.8333,20.5 27.1667,20.5 31.5,20.5C 31.5,24.5 31.5,28.5 31.5,32.5C 28.779,32.9628 26.1123,33.6295 23.5,34.5C 20.8877,33.6295 18.221,32.9628 15.5,32.5C 15.5,30.5 15.5,28.5 15.5,26.5C 16.8333,26.5 18.1667,26.5 19.5,26.5C 19.5,27.5 19.5,28.5 19.5,29.5C 22.1667,30.8333 24.8333,30.8333 27.5,29.5C 27.5,27.8333 27.5,26.1667 27.5,24.5C 23.1667,24.5 18.8333,24.5 14.5,24.5C 14.5,20.5 14.5,16.5 14.5,12.5C 17.5,12.5 20.5,12.5 23.5,12.5 Z"/></g>
</svg>
