<?xml version="1.0" encoding="UTF-8"?>
<svg version="1.1" xmlns="http://www.w3.org/2000/svg" width="50" height="50">
<path d="M0 0 C9.24 0 18.48 0 28 0 C28 14.52 28 29.04 28 44 C18.76 44 9.52 44 0 44 C0 29.48 0 14.96 0 0 Z M2 3 C1.89896745 5.79993597 1.86029912 8.57468644 1.8671875 11.375 C1.86623077 12.21466309 1.86527405 13.05432617 1.86428833 13.91943359 C1.86360652 15.69824295 1.86546083 17.47705477 1.86962891 19.25585938 C1.87497717 21.98833776 1.86968395 24.72065176 1.86328125 27.453125 C1.86394203 29.1770837 1.86522319 30.90104229 1.8671875 32.625 C1.86516327 33.44790527 1.86313904 34.27081055 1.86105347 35.11865234 C1.5142454 38.86379866 1.5142454 38.86379866 3 42 C4.62257544 42.0991657 6.24939831 42.13079777 7.875 42.1328125 C8.85984375 42.13410156 9.8446875 42.13539062 10.859375 42.13671875 C12.41398437 42.13091797 12.41398437 42.13091797 14 42.125 C15.03640625 42.12886719 16.0728125 42.13273437 17.140625 42.13671875 C18.12546875 42.13542969 19.1103125 42.13414063 20.125 42.1328125 C21.03507812 42.13168457 21.94515625 42.13055664 22.8828125 42.12939453 C24.9852848 42.23560009 24.9852848 42.23560009 26 41 C26.10103255 38.20006403 26.13970088 35.42531356 26.1328125 32.625 C26.13376923 31.78533691 26.13472595 30.94567383 26.13571167 30.08056641 C26.13639348 28.30175705 26.13453917 26.52294523 26.13037109 24.74414062 C26.12502283 22.01166224 26.13031605 19.27934824 26.13671875 16.546875 C26.13605797 14.8229163 26.13477681 13.09895771 26.1328125 11.375 C26.13483673 10.55209473 26.13686096 9.72918945 26.13894653 8.88134766 C26.4857546 5.13620134 26.4857546 5.13620134 25 2 C23.31391034 1.92794489 21.62499341 1.91613932 19.9375 1.9375 C19.01839844 1.94652344 18.09929688 1.95554687 17.15234375 1.96484375 C16.44207031 1.97644531 15.73179688 1.98804688 15 2 C15 2.99 15 3.98 15 5 C17.97 5 20.94 5 24 5 C24 15.89 24 26.78 24 38 C17.4 38 10.8 38 4 38 C4 27.11 4 16.22 4 5 C6.97 5 9.94 5 13 5 C13 4.01 13 3.02 13 2 C11.35425434 1.97311849 9.70838587 1.95365877 8.0625 1.9375 C6.68771484 1.92009766 6.68771484 1.92009766 5.28515625 1.90234375 C3.03406673 1.74050951 3.03406673 1.74050951 2 3 Z M6 7 C6 16.57 6 26.14 6 36 C11.28 36 16.56 36 22 36 C22 26.43 22 16.86 22 7 C16.72 7 11.44 7 6 7 Z " fill="#000000" transform="translate(11,3)"/>
<path d="M0 0 C2.97 0 5.94 0 9 0 C9 0.66 9 1.32 9 2 C6.03 2 3.06 2 0 2 C0 1.34 0 0.68 0 0 Z " fill="#000000" transform="translate(20,42)"/>
</svg>
