<?xml version="1.0" standalone="no"?>
<!DOCTYPE svg PUBLIC "-//W3C//DTD SVG 20010904//EN"
 "http://www.w3.org/TR/2001/REC-SVG-20010904/DTD/svg10.dtd">
<svg version="1.0" xmlns="http://www.w3.org/2000/svg"
 width="64.000000pt" height="64.000000pt" viewBox="0 0 64.000000 64.000000"
 preserveAspectRatio="xMidYMid meet">
<metadata>
Created by potrace 1.16, written by Peter Selinger 2001-2019
</metadata>
<g transform="translate(0.000000,64.000000) scale(0.100000,-0.100000)"
fill="#000000" stroke="none">
<path d="M300 433 c0 -102 -1 -105 -18 -90 -25 22 -52 22 -52 -1 0 -22 70 -92
91 -92 20 0 89 72 89 93 0 22 -28 22 -52 0 -17 -15 -18 -12 -18 90 0 100 -1
107 -20 107 -19 0 -20 -7 -20 -107z"/>
<path d="M100 170 l0 -70 220 0 220 0 0 70 c0 63 -2 70 -20 70 -17 0 -20 -7
-20 -50 l0 -50 -180 0 -180 0 0 50 c0 43 -3 50 -20 50 -18 0 -20 -7 -20 -70z"/>
</g>
</svg>
