<?xml version="1.0" standalone="no"?>
<!DOCTYPE svg PUBLIC "-//W3C//DTD SVG 20010904//EN"
 "http://www.w3.org/TR/2001/REC-SVG-20010904/DTD/svg10.dtd">
<svg version="1.0" xmlns="http://www.w3.org/2000/svg"
 width="48.000000pt" height="48.000000pt" viewBox="0 0 48.000000 48.000000"
 preserveAspectRatio="xMidYMid meet">

<g transform="translate(0.000000,48.000000) scale(0.100000,-0.100000)"
fill="#000000" stroke="none">
<path d="M114 415 c-17 -13 -5 -14 114 -15 128 0 134 -1 157 -25 23 -22 25
-32 25 -122 1 -88 2 -96 15 -79 11 14 15 45 15 104 0 82 -1 85 -34 118 l-34
34 -119 0 c-89 0 -124 -4 -139 -15z"/>
<path d="M60 360 c-17 -17 -20 -33 -20 -115 0 -82 3 -98 20 -115 11 -11 27
-20 35 -20 10 0 15 -10 15 -30 0 -45 23 -47 80 -6 43 31 58 36 105 36 84 0 95
16 95 135 0 135 0 135 -175 135 -122 0 -137 -2 -155 -20z m108 -111 c-2 -6 -8
-10 -13 -10 -5 0 -11 4 -13 10 -2 6 4 11 13 11 9 0 15 -5 13 -11z m60 0 c-2
-6 -8 -10 -13 -10 -5 0 -11 4 -13 10 -2 6 4 11 13 11 9 0 15 -5 13 -11z m60 0
c-2 -6 -8 -10 -13 -10 -5 0 -11 4 -13 10 -2 6 4 11 13 11 9 0 15 -5 13 -11z"/>
</g>
</svg>
